<?xml version="1.0" encoding="UTF-8"?><svg id="uuid-366d48d0-2e52-4acc-8a49-747469b6617b" xmlns="http://www.w3.org/2000/svg" width="194" height="54" viewBox="0 0 194 54"><text transform="translate(13.63 39.42)" fill="#16131a" font-family="BaskOldFace, &apos;Baskerville Old Face&apos;" font-size="37.91"><tspan x="0" y="0">R</tspan></text><path d="M2.38,21.41C5.06,10.69,14.75,2.76,26.29,2.76s21.29,7.99,23.93,18.75" fill="none" stroke="#16131a" stroke-miterlimit="10" stroke-width="3"/><path d="M50.2,33.36c-2.67,10.73-12.36,18.68-23.91,18.68S5.15,44.17,2.42,33.54" fill="none" stroke="#16131a" stroke-miterlimit="10" stroke-width="3"/><path d="M67.83,20.51h-3.75v9.81h-2.25v-9.81h-3.75v-2.1h9.76v2.1Z" fill="#16131a"/><path d="M77.53,26v4.32h-2.28v-4.22c0-.93-.13-1.85-.6-2.35-.31-.35-.79-.53-1.41-.51-.41.02-.76.13-1.06.35-.33.25-.56.64-.66,1.14-.08.4-.1,1.09-.1,1.7v3.89h-2.27v-11.91h1.98v3.9s.08-.08.12-.13c.58-.69,1.49-.99,2.3-1.04,1.06-.07,2.13.12,2.99.96.98.96.98,2.51.98,3.9Z" fill="#16131a"/><path d="M82.07,27.7c.36.5.98.76,1.64.76.53,0,.94-.13,1.27-.4.33-.26.48-.51.58-.73l2.25.64c-.3.73-.86,1.42-1.55,1.87-.69.45-1.59.71-2.42.71-1.36,0-2.75-.51-3.56-1.49-.73-.89-1.09-1.97-1.09-3.11,0-1.29.38-2.48,1.09-3.34.83-.98,2.1-1.49,3.42-1.49s2.37.43,3.19,1.41c.89,1.04,1.11,2.38.99,3.94h-6.29c.07.45.2.88.46,1.22ZM82.08,23.81c-.23.3-.35.6-.43.93h3.99c-.03-.36-.13-.69-.36-.99-.35-.45-.96-.66-1.57-.66-.58,0-1.17.17-1.62.73Z" fill="#16131a"/><path d="M97.8,26.26h-2.5v4.05h-2.25v-11.91h5.03c1.41,0,2.18.35,2.86,1.01.86.83,1.19,1.69,1.21,2.93.02,1.12-.41,2.15-1.08,2.81-.28.28-.6.51-.94.68l2.18,4.48h-2.55l-1.97-4.05ZM95.31,24.16h2.84c.45,0,.99-.2,1.34-.63.26-.31.38-.79.38-1.19,0-.43-.1-.96-.4-1.32-.3-.35-.71-.5-1.32-.5h-2.84v3.64Z" fill="#16131a"/><path d="M106.2,27.7c.36.5.98.76,1.64.76.53,0,.94-.13,1.27-.4s.48-.51.58-.73l2.25.64c-.3.73-.86,1.42-1.55,1.87-.69.45-1.59.71-2.41.71-1.36,0-2.75-.51-3.56-1.49-.73-.89-1.09-1.97-1.09-3.11,0-1.29.38-2.48,1.09-3.34.83-.98,2.1-1.49,3.42-1.49s2.36.43,3.19,1.41c.89,1.04,1.11,2.38.99,3.94h-6.29c.07.45.2.88.46,1.22ZM106.21,23.81c-.23.3-.35.6-.43.93h3.99c-.03-.36-.13-.69-.36-.99-.35-.45-.96-.66-1.57-.66-.58,0-1.17.17-1.62.73Z" fill="#16131a"/><path d="M119.23,30.31v-1.09c-.89,1.03-1.7,1.34-3.08,1.34-1.8,0-2.94-1.09-2.94-2.76,0-1.16.45-2.05,1.57-2.56s3.01-.71,4.18-.88c-.15-.65-.69-1.11-1.72-1.11-.88,0-1.65.33-2.23.84l-1.29-1.49c.94-.89,2.08-1.47,3.69-1.47.98,0,1.97.43,2.61.98.88.74,1.17,1.75,1.17,2.88v5.33h-1.97ZM118.97,26.11c-.53.1-1.41.28-2.25.46-.68.15-1.29.46-1.29,1.06s.55,1.06,1.27,1.06c.86,0,1.57-.43,1.97-1.02.31-.48.3-1.09.3-1.56Z" fill="#16131a"/><path d="M123.36,30.31v-12.16h2.25v12.16h-2.25Z" fill="#16131a"/><path d="M138.13,22.04c-.3-.6-.55-1.01-1.11-1.34-.38-.23-.86-.43-1.41-.43-.56-.02-1.09.12-1.44.33-.41.25-.61.63-.61.99,0,.22.08.41.23.56.21.23.76.45,1.36.63l2.07.6c1.06.31,1.67.63,2.2,1.12.71.68,1.11,1.55,1.11,2.53,0,1.04-.6,2.13-1.54,2.76-.91.61-2,.76-3.26.76-1.59,0-2.94-.41-3.92-1.6-.58-.71-.89-1.54-1.07-2.32l2.28-.61c.1.58.3,1.11.6,1.47.48.66,1.41.96,2.2.96.63,0,1.42-.18,1.85-.51.38-.28.48-.64.48-.98s-.12-.61-.36-.83c-.26-.23-.6-.4-1.06-.53l-2.22-.64c-.89-.25-1.7-.6-2.28-1.11-.71-.6-1.03-1.49-1.03-2.32,0-1.31.84-2.43,1.94-2.93.86-.4,1.72-.46,2.51-.46.81.02,1.7.15,2.5.58,1.01.55,1.8,1.49,2.27,2.7l-2.28.61Z" fill="#16131a"/><path d="M145.13,26.39c0,.69-.03,1.27.18,1.6.21.35.6.48.94.51.43.03.98,0,1.46-.06v1.87c-.69.2-1.95.18-2.61.07-.83-.15-1.34-.41-1.82-1.12-.5-.73-.4-1.65-.4-2.73v-3.41h-1.52v-1.74h1.52v-2.48h2.25v2.48h2.58v1.74h-2.58v3.27Z" fill="#16131a"/><path d="M157.91,21.38v8.93h-1.98v-.93s-.08.08-.12.13c-.58.69-1.49.99-2.3,1.04-1.06.07-2.13-.12-2.99-.96-.98-.96-.98-2.51-.98-3.9v-4.32h2.28v4.22c0,.93.13,1.85.6,2.35.31.35.79.53,1.41.51.41-.02.76-.13,1.06-.35.33-.25.56-.64.66-1.14.08-.4.1-1.09.1-1.7v-3.89h2.27Z" fill="#16131a"/><path d="M168.41,18.4v11.91h-1.98v-.55c-.69.53-1.59.79-2.58.79-1.17,0-2.35-.51-3.08-1.42-.76-.93-1.04-2.07-1.04-3.29s.35-2.41,1.04-3.29c.76-.94,1.95-1.42,3.19-1.42.79,0,1.55.23,2.18.61v-3.34h2.27ZM166.43,25.85c0-.81-.2-1.59-.63-2.08-.36-.43-.89-.63-1.5-.63-.74,0-1.32.21-1.7.79-.31.46-.48,1.16-.48,1.92s.13,1.46.45,1.92c.38.58,1.03.79,1.65.79s1.19-.2,1.59-.63c.43-.48.63-1.27.63-2.08Z" fill="#16131a"/><path d="M173.15,18.16v1.98h-2.25v-1.98h2.25ZM173.15,21.38v8.93h-2.25v-8.93h2.25Z" fill="#16131a"/><path d="M176.23,29.07c-.76-.93-1.09-2-1.09-3.22s.38-2.37,1.09-3.23c.83-.98,2.12-1.49,3.42-1.49s2.6.5,3.42,1.49c.79.94,1.11,2.02,1.11,3.23,0,1.27-.35,2.28-1.11,3.22-.84.99-2.08,1.49-3.42,1.49s-2.6-.51-3.42-1.49ZM181.29,23.98c-.36-.5-.98-.74-1.64-.74s-1.27.25-1.64.74c-.38.5-.5,1.19-.5,1.87s.12,1.36.5,1.85c.36.5.98.76,1.64.76s1.27-.26,1.64-.76c.38-.5.51-1.17.51-1.85s-.13-1.37-.51-1.87Z" fill="#16131a"/><path d="M190.87,24.26c-.33-.84-1.03-1.16-1.84-1.19-.69-.03-1.42.26-1.42.71,0,.38.43.48.98.63l1.65.46c1.69.46,2.81,1.39,2.81,2.86,0,.91-.5,1.77-1.27,2.23-.76.48-1.49.6-2.35.6-1.31,0-2.43-.28-3.23-1.21-.6-.69-.81-1.31-.94-1.92l2.02-.51c.1.4.3.84.53,1.09.45.46,1.06.61,1.67.61.33,0,.94-.1,1.21-.3.23-.17.35-.31.35-.56,0-.55-.66-.66-1.29-.84-1.7-.48-1.98-.55-2.27-.66-.51-.21-1.11-.55-1.44-.98-.31-.4-.45-1.04-.45-1.42,0-1.12.69-2,1.62-2.4.69-.3,1.34-.33,1.95-.33s1.29.13,1.9.45c.86.41,1.55,1.22,1.9,2.15l-2.1.53Z" fill="#16131a"/><path d="M59.56,39.48l.1.08c.05.03.08.09.08.19,0,.02,0,.05-.03.08-.02.03-.03.06-.05.09-.13.25-.27.37-.45.37-.05,0-.14-.05-.26-.15-.12-.1-.19-.19-.22-.27s-.06-.13-.08-.15-.03-.04-.03-.05c0-.04.02-.08.05-.13s.05-.11.07-.18.05-.12.12-.16c.06-.03.11-.07.14-.1.03-.03.07-.05.11-.05.03,0,.06.01.09.04.03.02.07.05.12.08.05.03.11.09.16.18l.07.13Z" fill="#16131a"/><path d="M62.29,39.48l.1.08c.05.03.08.09.08.19,0,.02,0,.05-.03.08-.02.03-.03.06-.05.09-.13.25-.27.37-.45.37-.05,0-.14-.05-.26-.15-.12-.1-.19-.19-.22-.27s-.06-.13-.08-.15-.03-.04-.03-.05c0-.04.02-.08.05-.13s.05-.11.07-.18.05-.12.12-.16c.06-.03.11-.07.14-.1.03-.03.07-.05.11-.05.03,0,.06.01.09.04.03.02.07.05.12.08.05.03.11.09.16.18l.07.13Z" fill="#16131a"/><path d="M65.01,39.48l.1.08c.05.03.08.09.08.19,0,.02,0,.05-.03.08-.02.03-.03.06-.05.09-.13.25-.27.37-.45.37-.05,0-.14-.05-.26-.15-.12-.1-.19-.19-.22-.27s-.06-.13-.08-.15-.03-.04-.03-.05c0-.04.02-.08.05-.13s.05-.11.07-.18.05-.12.12-.16c.06-.03.11-.07.14-.1.03-.03.07-.05.11-.05.03,0,.06.01.09.04.03.02.07.05.12.08.05.03.11.09.16.18l.07.13Z" fill="#16131a"/><path d="M66.23,37.92l.09-.08h.03s.06-.03.11-.08l.05-.02c.07-.11.14-.17.19-.19l.09-.07s.04-.03.06-.04.07-.05.13-.11.11-.09.14-.09.07,0,.09.01c.02-.04.07-.09.13-.13.07-.04.12-.09.16-.15l.07-.03c.06-.03.11-.07.15-.11.05-.05.1-.07.18-.07.1,0,.21.05.33.16s.17.21.17.31l-.09.42c-.06.31-.13.47-.21.49l-.02.11c-.05.04-.08.07-.08.09l.03.13s-.02.04-.06.08c0,0-.01.01-.01.03v.22s-.03.07-.08.1c0,0,.02.01.03.02.02-.02.07-.03.15-.03h.09s.12-.11.12-.11c.02,0,.06-.02.11-.05.05-.03.12-.06.23-.11l.71-.54c.1-.1.17-.15.22-.15.05,0,.08.03.08.1,0,.08-.02.15-.05.2-.03.05-.06.12-.08.19-.03.07-.06.13-.09.16s-.06.06-.08.09c-.02.03-.08.08-.18.15s-.18.13-.24.2c-.07.07-.12.12-.17.14l-.23.17-.03.05s-.04.02-.1.05c-.06.02-.11.05-.16.09l-.1.05s-.06.02-.11.03-.09.02-.13.06-.07.06-.09.06h-.08s-.11.02-.11.02c-.06,0-.14-.04-.23-.11-.09-.07-.13-.15-.13-.24v-.11s0-.05-.02-.11-.03-.09-.03-.1v-.08s0-.03,0-.03c0-.1,0-.16.02-.18s.03-.06.03-.11c0-.04.01-.08.02-.11l.03-.14s.03-.07.05-.09c0-.03.02-.08.04-.15l.02-.1.05-.08s.05-.07.05-.12.02-.1.06-.15.05-.09.05-.1c0-.04-.02-.07-.07-.07-.01,0-.06.03-.14.09l-.1-.03s-.03.02-.06.05c0,.01-.02.02-.05.03-.03,0-.06.03-.09.08h-.04s-.07-.02-.07-.02h-.02s-.06.04-.07.12c-.04.06-.09.1-.16.11l-.12.03s-.07.05-.09.1c-.02.05-.05.1-.11.14-.05.04-.09.06-.11.06-.1,0-.15-.06-.15-.17l.04-.26v-.03ZM68.58,35.21l-.03-.21v-.03c0-.17.06-.26.17-.28.02,0,.1-.03.23-.07.07.02.13.07.2.17s.11.19.11.26c0,0,0,.02-.02.05-.01.03-.02.07-.02.14,0,.07-.04.13-.11.18-.07.05-.14.08-.21.08-.05,0-.12-.03-.19-.11-.08-.07-.12-.13-.13-.19Z" fill="#16131a"/><path d="M71.18,34.9l.08-.02.05-.05h.01l.05.02h.01c.09,0,.16-.02.23-.05s.12-.06.17-.07c.05-.01.07-.02.08-.03.01,0,.02-.01.03-.01h.09s.07-.04.12-.14.1-.18.17-.23c.06-.05.12-.14.18-.27.01-.02.03-.05.05-.08s.03-.06.04-.06c.05,0,.1-.03.13-.1.11-.13.2-.19.27-.19.09,0,.15.09.19.26l.05.21s0,.03-.03.08c-.02.05-.03.1-.02.15,0,.05,0,.08,0,.1s0,.03,0,.06c0,.03.03.04.09.04.02,0,.06-.01.12-.04h.03s.07.02.09.02c0,0,.06-.02.15-.05.1-.04.16-.06.18-.06.02,0,.07-.02.13-.04h.07l.04.02s.04-.02.09-.05c.05-.03.13-.05.26-.06l.08-.03h.02c.12,0,.18.05.18.16,0,.02-.02.06-.05.11-.03.05-.06.12-.08.18l-.25.31c-.08.11-.17.16-.25.16-.01,0-.06-.05-.14-.15,0,0,0-.01-.02-.01-.04,0-.07,0-.11.02-.04.02-.07.02-.1.02-.01,0-.11.03-.29.08l-.13.02s-.05,0-.1.02l-.28.05c-.09.05-.17.14-.22.27,0,0-.02.02-.05.05l-.24.45c-.08.02-.13.07-.16.14l-.02.03s-.08.03-.11.07-.06.07-.09.09l-.1.15c-.04.05-.08.11-.12.17-.04.06-.07.12-.09.19-.02.07-.03.11-.04.12s-.02.03-.02.06l-.02.04s-.07.09-.07.15l.02.09c-.05.17-.08.27-.08.28,0,0,0,.03.01.06v.03c0,.08-.03.18-.09.3v.09s-.02.24-.02.24c0,.03.01.09.03.18-.01.01-.02.02-.02.03,0,.1.05.21.16.33.11.12.16.31.16.57,0,.02,0,.05-.02.09-.01.04-.02.09-.02.14,0,.05-.03.1-.08.14s-.1.07-.13.07c-.19,0-.34-.14-.43-.42s-.14-.46-.14-.54v-.21s-.02-.11-.02-.11l.03-.48-.02-.11.12-.47v-.17s.03-.04.08-.09c0,0,0-.01-.02-.01-.02,0-.05.02-.09.07s-.08.08-.14.12l-.04.08s-.02-.02-.04-.02c-.02,0-.08.09-.18.26-.08.01-.14.05-.18.13s-.1.11-.18.11h-.02c-.01.12-.07.17-.15.17h-.02c-.05.13-.11.19-.17.19-.04.11-.13.18-.27.22-.02.04-.05.08-.1.1-.04.02-.07.04-.09.06-.02.02-.03.03-.05.03-.05,0-.07-.05-.07-.15,0-.03.01-.06.04-.1.02-.03.04-.06.04-.07,0,0-.02-.03-.05-.07,0-.11.03-.18.09-.21.06-.03.1-.07.13-.12.02-.04.05-.07.11-.09.05-.02.08-.04.08-.07,0-.03.05-.08.14-.15.09-.08.16-.14.21-.2s.08-.08.11-.08l.02-.02c0-.09.04-.14.1-.14l.05-.03v-.04s.04-.02.04-.02h.04l.03-.02c0-.09.05-.16.13-.21.08-.05.22-.19.43-.43.21-.23.32-.38.35-.45s.07-.15.14-.26c.07-.11.1-.21.11-.31,0-.01-.02-.03-.03-.04l-.23.11s-.04-.03-.11-.05c-.05.03-.09.07-.12.1-.02.03-.05.05-.06.05h-.08s-.24.02-.24.02c-.21.02-.37.06-.48.13l-.22.07h-.05s-.07.02-.13.05h-.12c-.12.05-.2.08-.26.08,0,0-.03,0-.07-.01l-.55.15s-.14.09-.29.22h-.04s-.08-.03-.13-.11-.07-.16-.07-.22c0-.36.31-.57.92-.62l.22-.09h.01l.06.02h.02s.06-.01.1-.04.15-.06.31-.1l.22-.06h.07s.08,0,.12-.03c.05-.03.11-.05.21-.06s.16-.03.19-.04l.09-.02s.04-.01.09-.04c.05-.02.1-.04.18-.04.01,0,.04,0,.08.02Z" fill="#16131a"/><path d="M73.55,37.21l.08-.14s.05-.07.08-.1c.03-.03.07-.12.11-.27.04-.14.08-.24.13-.3.05-.05.12-.08.21-.08.05,0,.13.03.21.08.09.05.18.21.26.48.09.26.13.45.13.56,0,.04.01.1.04.17.03.07.04.12.05.16-.03.06-.04.1-.04.1v.22s-.05.18-.05.18v.13c-.04.07-.07.12-.07.14,0,.02,0,.04.02.07.17-.07.27-.13.31-.18.04-.04.07-.07.11-.08.03-.01.09-.06.17-.14l.1-.05s.07-.08.09-.12c.02-.03.05-.06.09-.07.03-.02.07-.04.12-.08.05-.04.12-.08.21-.12l.05-.07c.05-.06.12-.11.19-.15.07-.04.11-.05.12-.05.03,0,.05.03.08.1.03.07.04.13.04.2,0,.06-.04.12-.11.18s-.12.1-.14.13c-.02.03-.08.05-.17.08,0,0-.07.08-.18.22l-.11.07-.05.07s-.06.03-.15.04c0,0-.01.02-.02.05-.01.04-.05.06-.12.08-.13.12-.2.19-.2.2l-.11.02c-.02.07-.04.11-.05.12-.09.02-.14.06-.15.11-.01,0-.03.01-.05.02l-.02.02c-.08.07-.16.11-.24.12l-.12.03-.04.07s-.04.04-.13.07-.15.07-.2.11l-.09.07c-.11.04-.18.08-.21.12h-.08c-.05,0-.13.04-.24.11-.11.07-.2.11-.26.11-.21,0-.35-.03-.43-.08-.08-.05-.14-.12-.19-.2-.05-.08-.1-.14-.14-.19-.04-.05-.06-.08-.06-.11,0-.02.02-.05.05-.08.03-.02.07-.08.11-.16.04-.08.14-.13.3-.15,0,0,.03-.01.08-.03.05-.02.08-.03.11-.03.04,0,.08.03.14.1,0,0,0,.01.02.01h.09s.07.03.08.03c.09,0,.18-.04.28-.13h.02s.04-.01.04-.01c.01,0,.03-.03.05-.09l.09-.19.19-.24v-.05s.01-.04.03-.1v-.08s.02-.05.07-.06c.04,0,.07-.03.07-.07v-.04s-.05-.07-.05-.09l.05-.11v-.11s.01-.04.01-.04c-.01-.05-.02-.08-.02-.09l.02-.14s-.01-.04-.03-.1c-.02-.07-.04-.1-.05-.1-.02,0-.09.06-.21.17-.12.11-.19.19-.21.24-.02.05-.07.09-.14.13s-.12.08-.14.13c-.03.05-.06.07-.09.08l-.36.29-.4.29s-.05.05-.05.05c-.13,0-.2-.07-.2-.22,0-.05.03-.13.08-.26.03-.02.04-.03.06-.03.01,0,.02-.01.02-.02,0,0,0,0-.01,0l.03.02h.01c.13-.09.22-.14.26-.16.04-.02.08-.05.11-.12l.23-.16c.06-.04.15-.12.27-.24.12-.12.2-.2.23-.26Z" fill="#16131a"/><path d="M82.57,38.4l.09-.08c.05,0,.09-.02.1-.07s.05-.09.12-.12c.07-.03.13-.09.19-.18.06-.09.12-.13.18-.13.02,0,.05.02.08.05.03.04.04.07.04.09,0,.12-.04.24-.11.37l-.02.15-.04.07c-.05.03-.09.06-.11.09s-.06.07-.13.12l-.05.08c-.08.02-.13.07-.16.12s-.06.09-.11.1-.1.04-.16.11c-.04.02-.08.03-.13.05v.05s-.1.07-.18.09c-.08.02-.14.04-.17.06-.04.02-.06.03-.08.03-.07,0-.13-.01-.19-.04-.06-.03-.12-.04-.18-.05-.02-.02-.03-.05-.04-.07,0-.02-.02-.06-.05-.1-.03-.04-.05-.1-.05-.17l.02-.1s0-.03-.03-.05-.03-.04-.03-.05,0-.02.01-.03.01-.02.01-.03c0-.02,0-.04-.01-.06s-.01-.04-.01-.05l.03-.27s0-.03-.02-.03-.04.02-.08.05c-.04.04-.08.05-.13.05-.03.02-.05.07-.07.14-.03.04-.07.07-.11.1l-.02.03s-.03.05-.08.06c-.05.02-.08.04-.1.06l-.05.05h-.1s-.03.03-.06.08c-.03.06-.07.1-.12.14l-.41.34s-.11.07-.19.11l-.03.03c-.29.19-.49.29-.61.29-.1,0-.21-.03-.34-.08s-.2-.12-.21-.2l-.05-.22c-.03-.05-.05-.12-.05-.21,0-.04,0-.07.01-.09v-.21s.02-.07.09-.07v-.15s.02-.07.08-.17c.06-.1.11-.16.13-.17l.05-.07s.02-.09.08-.14.1-.1.13-.15c.03-.05.09-.11.19-.17l.16-.16c.13-.13.26-.23.41-.3.02,0,.07-.04.13-.11.07-.07.14-.11.23-.14s.17-.07.25-.12c.08-.05.15-.07.19-.07h.04s.11-.05.29-.14h.03s.05.01.1.04h.01l.09-.04s.03-.01.05-.01c.22,0,.35.16.37.47,0,.07.02.1.05.1.04,0,.09-.07.15-.2.07-.13.21-.2.43-.2.16,0,.23.1.23.3,0,.23-.11.46-.32.67-.01.03-.02.06-.03.1l-.08.22h0s-.02.06-.05.1c-.03.04-.05.07-.05.1v.14s-.01.15-.01.15c0,.07.01.11.04.14.12-.03.2-.08.25-.14.05-.07.09-.1.11-.11l.05-.02c.03-.05.07-.1.11-.14ZM80.76,38.4c.01-.08.06-.14.13-.18.07-.04.12-.08.13-.13.07-.05.17-.14.3-.27.13-.13.19-.21.19-.24,0-.01,0-.02-.02-.02h-.01l-.04.03h-.1s-.1,0-.1,0l-.08-.04h-.07s-.11-.01-.11-.01c-.06,0-.11.01-.15.03-.04.02-.12.05-.24.08-.12.03-.22.08-.32.15-.09.07-.16.11-.21.11-.03.05-.11.13-.26.23-.09.03-.14.09-.17.19-.09.08-.14.12-.14.13l-.04.09s-.07.05-.11.06-.07.05-.08.11c0,.06-.03.11-.07.16-.04.05-.06.09-.06.12,0,.18.03.27.1.27.03,0,.09-.02.18-.06s.15-.06.16-.08c.01-.01.04-.03.09-.04l.1-.05s.03-.02.05-.03.04-.02.05-.04c.02-.02.05-.04.1-.07.05-.02.08-.05.11-.09.06-.04.16-.09.3-.17l.11-.09c.08-.04.13-.07.15-.09.02-.03.05-.05.11-.08Z" fill="#16131a"/><path d="M83.73,38.51v-.04c0-.05,0-.09.01-.12-.02-.06-.03-.11-.03-.16,0,0,.02-.06.05-.15l.05-.17c.03-.07.04-.1.04-.1-.02-.06-.03-.09-.03-.1,0-.08.02-.15.07-.21.05-.05.09-.13.12-.23l.11-.33.18-.43s.02-.04.05-.09c.03-.05.06-.09.08-.12.02-.03.05-.08.08-.15h.05s.02-.04.02-.05c0,0,0-.04-.02-.09l.19-.31.11-.23c.04-.06.08-.1.12-.12.07-.13.14-.21.19-.24.02-.07.06-.14.12-.22h.1c.02-.06.04-.1.05-.12v-.11s.02.02.04-.02c.02-.03.05-.1.08-.19l.15-.17.04-.08s.05-.07.09-.15c.05-.02.1-.06.14-.12l.11-.09s.04-.13.13-.27c.06-.02.12-.06.17-.1l.08-.02c0-.13.05-.21.14-.26l.07-.04c.06-.03.09-.04.1-.04h.04s.09-.03.15-.03c.13,0,.26.05.36.15.11.1.16.21.16.34,0,.05-.03.1-.08.16l-.02.04c-.05.2-.09.3-.11.3-.01,0-.03.01-.06.03,0,.12-.01.19-.02.2-.07.01-.1.09-.1.24,0,.02-.03.06-.08.11-.05.05-.08.12-.11.22-.02.09-.05.14-.08.14h-.06l.02.08c0,.05-.02.1-.07.15s-.08.1-.09.15-.05.12-.13.2l-.05.09s-.05.07-.09.11c-.04.04-.07.1-.09.18l-.14.26c-.1.18-.17.26-.22.26-.03.14-.05.22-.07.25s-.04.04-.08.06c-.04.02-.07.05-.09.09s-.05.08-.07.1l-.1.2c-.06.02-.1.07-.12.14-.06.01-.09.06-.11.15-.01.01-.03.05-.05.1l-.19.19c-.1.07-.15.15-.16.24,0,.09-.05.13-.14.13-.06,0-.15-.03-.27-.08h-.01s-.04.11-.08.17l.02.15s-.03.13-.09.34c.03.05.04.09.04.11v.12s.02.15.02.15c.02.12.06.18.13.18l.13.02s.05-.03.14-.08l.2-.11s.01,0,.01.01c.04.01.07.02.09.02.04,0,.05-.03.05-.09v-.07s.05-.06.08-.07c.03,0,.06-.02.08-.05s.05-.04.06-.04h.05c.05,0,.08-.06.08-.19.01,0,.03-.02.05-.04h.07s.06-.04.1-.11c.03-.07.06-.11.07-.13.06,0,.11-.02.14-.03.12-.21.2-.31.27-.31h.03c.06-.06.1-.11.1-.16,0-.04.02-.07.05-.09.03-.02.06-.03.08-.05s.04-.03.05-.03c.05,0,.08.02.08.06l-.02.15.04.16s-.02.04-.05.08c-.03.04-.05.09-.05.14,0,.1-.02.16-.05.17-.04,0-.07.03-.09.07-.02.04-.06.08-.12.11-.05.03-.1.08-.12.15l-.09.02-.05.03c-.04.11-.09.18-.14.21s-.11.1-.18.23c-.01,0-.02,0-.02.01h-.09s-.07.08-.1.09-.06.03-.08.06c-.02.03-.06.06-.12.08s-.09.05-.11.08c-.01.03-.04.05-.07.05-.03,0-.06.02-.08.04-.02.02-.05.04-.07.04,0,0-.03,0-.08-.01h-.02c-.06.04-.11.07-.15.07-.05,0-.08,0-.1.02-.02-.01-.06-.02-.1-.03s-.1-.02-.15-.05c-.06.01-.1.02-.11.02-.06,0-.14-.06-.23-.18-.09-.12-.14-.24-.14-.36,0,0-.02-.03-.06-.08-.04-.05-.06-.11-.06-.17v-.12s.01-.1.01-.1v-.03c.07,0,.09-.01.09-.02l-.07-.1ZM84.83,37.08l.11-.07c.01-.06.06-.13.14-.21s.14-.12.17-.12h.04s0-.05.02-.08c.01-.03.02-.06.02-.1,0-.02.05-.08.15-.18l.04-.1c.03-.09.11-.17.24-.23.05-.1.09-.16.11-.16h.04c.01-.07.04-.11.09-.16l.02-.03v-.09s.02-.04.07-.09.08-.1.11-.15.05-.08.09-.11c.04-.02.06-.07.08-.14h.09c0-.06,0-.09.01-.1v-.05s.09-.16.2-.34l.09-.2s.02-.05.05-.08c.03-.03.05-.07.05-.13l.04-.18c0-.08-.01-.12-.04-.12-.04.03-.07.04-.1.05-.03.01-.06.08-.09.2-.11.03-.17.08-.19.16-.02.08-.06.14-.13.2l-.04.07s-.04.08-.1.12c-.06.04-.12.12-.17.22-.18.25-.28.38-.3.4l-.05.07h-.08s.02.08.02.09c0,.02-.01.04-.03.06s-.04.04-.05.07c-.01.03-.03.06-.07.1s-.06.1-.09.18-.05.13-.07.15h-.08s-.07.05-.07.08l.02.08s0,.03-.03.05-.04.06-.06.12c-.02.06-.06.15-.14.26s-.13.24-.17.37c-.04.13-.08.22-.12.25,0,0,.02.01.03.01.05,0,.09-.05.14-.15Z" fill="#16131a"/><path d="M86.68,38.51v-.04c0-.05,0-.09.01-.12-.02-.06-.03-.11-.03-.16,0,0,.02-.06.05-.15l.05-.17c.03-.07.04-.1.04-.1-.02-.06-.03-.09-.03-.1,0-.08.02-.15.07-.21.05-.05.09-.13.12-.23l.11-.33.18-.43s.02-.04.05-.09c.03-.05.06-.09.08-.12.02-.03.05-.08.08-.15h.05s.02-.04.02-.05c0,0,0-.04-.02-.09l.19-.31.11-.23c.04-.06.08-.1.12-.12.07-.13.14-.21.19-.24.02-.07.06-.14.12-.22h.1c.02-.06.04-.1.05-.12v-.11s.02.02.04-.02c.02-.03.05-.1.08-.19l.15-.17.04-.08s.05-.07.09-.15c.05-.02.1-.06.14-.12l.11-.09s.04-.13.13-.27c.06-.02.12-.06.17-.1l.08-.02c0-.13.05-.21.14-.26l.07-.04c.06-.03.09-.04.1-.04h.04s.09-.03.15-.03c.13,0,.26.05.36.15.11.1.16.21.16.34,0,.05-.03.1-.08.16l-.02.04c-.05.2-.09.3-.11.3-.01,0-.03.01-.06.03,0,.12-.01.19-.02.2-.07.01-.1.09-.1.24,0,.02-.03.06-.08.11-.05.05-.08.12-.11.22-.02.09-.05.14-.08.14h-.06l.02.08c0,.05-.02.1-.07.15s-.08.1-.09.15-.05.12-.13.2l-.05.09s-.05.07-.09.11c-.04.04-.07.1-.09.18l-.14.26c-.1.18-.17.26-.22.26-.03.14-.05.22-.07.25s-.04.04-.08.06c-.04.02-.07.05-.09.09s-.05.08-.07.1l-.1.2c-.06.02-.1.07-.12.14-.06.01-.09.06-.11.15-.01.01-.03.05-.05.1l-.19.19c-.1.07-.15.15-.16.24,0,.09-.05.13-.14.13-.06,0-.15-.03-.27-.08h-.01s-.04.11-.08.17l.02.15s-.03.13-.09.34c.03.05.04.09.04.11v.12s.02.15.02.15c.02.12.06.18.13.18l.13.02s.05-.03.14-.08l.2-.11s.01,0,.01.01c.04.01.07.02.09.02.04,0,.05-.03.05-.09v-.07s.05-.06.08-.07c.03,0,.06-.02.08-.05s.05-.04.06-.04h.05c.05,0,.08-.06.08-.19.01,0,.03-.02.05-.04h.07s.06-.04.1-.11c.03-.07.06-.11.07-.13.06,0,.11-.02.14-.03.12-.21.2-.31.27-.31h.03c.06-.06.1-.11.1-.16,0-.04.02-.07.05-.09.03-.02.06-.03.08-.05s.04-.03.05-.03c.05,0,.08.02.08.06l-.02.15.04.16s-.02.04-.05.08c-.03.04-.05.09-.05.14,0,.1-.02.16-.05.17-.04,0-.07.03-.09.07-.02.04-.06.08-.12.11-.05.03-.1.08-.12.15l-.09.02-.05.03c-.04.11-.09.18-.14.21s-.11.1-.18.23c-.01,0-.02,0-.02.01h-.09s-.07.08-.1.09-.06.03-.08.06c-.02.03-.06.06-.12.08s-.09.05-.11.08c-.01.03-.04.05-.07.05-.03,0-.06.02-.08.04-.02.02-.05.04-.07.04,0,0-.03,0-.08-.01h-.02c-.06.04-.11.07-.15.07-.05,0-.08,0-.1.02-.02-.01-.06-.02-.1-.03s-.1-.02-.15-.05c-.06.01-.1.02-.11.02-.06,0-.14-.06-.23-.18-.09-.12-.14-.24-.14-.36,0,0-.02-.03-.06-.08-.04-.05-.06-.11-.06-.17v-.12s.01-.1.01-.1v-.03c.07,0,.09-.01.09-.02l-.07-.1ZM87.78,37.08l.11-.07c.01-.06.06-.13.14-.21s.14-.12.17-.12h.04s0-.05.02-.08c.01-.03.02-.06.02-.1,0-.02.05-.08.15-.18l.04-.1c.03-.09.11-.17.24-.23.05-.1.09-.16.11-.16h.04c.01-.07.04-.11.09-.16l.02-.03v-.09s.02-.04.07-.09.08-.1.11-.15.05-.08.09-.11c.04-.02.06-.07.08-.14h.09c0-.06,0-.09.01-.1v-.05s.09-.16.2-.34l.09-.2s.02-.05.05-.08c.03-.03.05-.07.05-.13l.04-.18c0-.08-.01-.12-.04-.12-.04.03-.07.04-.1.05-.03.01-.06.08-.09.2-.11.03-.17.08-.19.16-.02.08-.06.14-.13.2l-.04.07s-.04.08-.1.12c-.06.04-.12.12-.17.22-.18.25-.28.38-.3.4l-.05.07h-.08s.02.08.02.09c0,.02-.01.04-.03.06s-.04.04-.05.07c-.01.03-.03.06-.07.1s-.06.1-.09.18-.05.13-.07.15h-.08s-.07.05-.07.08l.02.08s0,.03-.03.05-.04.06-.06.12c-.02.06-.06.15-.14.26s-.13.24-.17.37c-.04.13-.08.22-.12.25,0,0,.02.01.03.01.05,0,.09-.05.14-.15Z" fill="#16131a"/><path d="M91.85,37.92l.09-.08h.03s.06-.03.11-.08l.05-.02c.07-.11.14-.17.19-.19l.09-.07s.04-.03.06-.04.07-.05.13-.11.11-.09.14-.09.07,0,.09.01c.02-.04.07-.09.13-.13.07-.04.12-.09.16-.15l.07-.03c.06-.03.11-.07.15-.11.05-.05.1-.07.18-.07.1,0,.21.05.33.16s.17.21.17.31l-.09.42c-.06.31-.13.47-.21.49l-.02.11c-.05.04-.08.07-.08.09l.03.13s-.02.04-.06.08c0,0-.01.01-.01.03v.22s-.03.07-.08.1c0,0,.02.01.03.02.02-.02.07-.03.15-.03h.09s.12-.11.12-.11c.02,0,.06-.02.11-.05.05-.03.12-.06.23-.11l.71-.54c.1-.1.17-.15.22-.15.05,0,.08.03.08.1,0,.08-.02.15-.05.2-.03.05-.06.12-.08.19-.03.07-.06.13-.09.16s-.06.06-.08.09c-.02.03-.08.08-.18.15s-.18.13-.24.2c-.07.07-.12.12-.17.14l-.23.17-.03.05s-.04.02-.1.05c-.06.02-.11.05-.16.09l-.1.05s-.06.02-.11.03-.09.02-.13.06-.07.06-.09.06h-.08s-.11.02-.11.02c-.06,0-.14-.04-.23-.11-.09-.07-.13-.15-.13-.24v-.11s0-.05-.02-.11-.03-.09-.03-.1v-.08s0-.03,0-.03c0-.1,0-.16.02-.18s.03-.06.03-.11c0-.04.01-.08.02-.11l.03-.14s.03-.07.05-.09c0-.03.02-.08.04-.15l.02-.1.05-.08s.05-.07.05-.12.02-.1.06-.15.05-.09.05-.1c0-.04-.02-.07-.07-.07-.01,0-.06.03-.14.09l-.1-.03s-.03.02-.06.05c0,.01-.02.02-.05.03-.03,0-.06.03-.09.08h-.04s-.07-.02-.07-.02h-.02s-.06.04-.07.12c-.04.06-.09.1-.16.11l-.12.03s-.07.05-.09.1c-.02.05-.05.1-.11.14-.05.04-.09.06-.11.06-.1,0-.15-.06-.15-.17l.04-.26v-.03ZM94.2,35.21l-.03-.21v-.03c0-.17.06-.26.17-.28.02,0,.1-.03.23-.07.07.02.13.07.2.17s.11.19.11.26c0,0,0,.02-.02.05-.01.03-.02.07-.02.14,0,.07-.04.13-.11.18-.07.05-.14.08-.21.08-.05,0-.12-.03-.19-.11-.08-.07-.12-.13-.13-.19Z" fill="#16131a"/><path d="M100,38.74h.02l.05.02s.02,0,.02-.01c0-.06.03-.11.09-.16.02-.07.06-.12.12-.16.06-.04.16-.1.3-.18l.13-.12.07-.03.04-.05s.08-.07.11-.07c.05,0,.08.02.08.06l-.05.11.02.18c0,.07-.02.12-.07.17-.05.05-.12.12-.21.22l-.28.29-.15.08s-.07.05-.1.08l-.21.18c0,.05-.02.09-.05.11h-.09l-.04.02c-.03.07-.1.14-.22.2l-.08.05s-.05.03-.07.03l-.15-.02-.1.02s-.07-.01-.12-.04-.1-.05-.15-.07-.12-.08-.19-.2c-.08-.12-.12-.19-.13-.23,0-.01,0-.04-.02-.07-.02-.03-.02-.05-.02-.06s.02-.04.05-.11h0s0-.05-.03-.09-.03-.09-.03-.15c0-.03-.01-.07-.03-.12.03-.03.04-.05.04-.07,0-.02,0-.04-.02-.06s-.02-.05-.02-.06l.03-.27-.02-.14v-.13c.01-.08-.02-.11-.09-.11-.03,0-.07.02-.11.06h-.04c-.1.06-.17.1-.21.13-.04.03-.08.05-.12.05-.02.02-.06.04-.12.06l-.04.03s-.04.04-.09.07c0,.01-.07.07-.2.18-.14.11-.26.21-.36.31-.11.1-.19.15-.24.16-.05,0-.07.06-.07.14,0,.01-.03.04-.1.09,0,0-.05.04-.11.12-.06-.04-.09-.07-.1-.07-.05,0-.08.06-.1.18-.02.05-.08.08-.17.09,0,0-.02.03-.04.08l-.02.02h-.05s-.03.02-.08.06c-.04.04-.08.07-.11.08-.05.1-.09.15-.12.15-.01,0-.04,0-.06-.02s-.06-.03-.1-.04c-.04-.01-.08-.06-.13-.13-.05-.08-.07-.14-.07-.2,0-.4.08-.62.23-.66v-.02s.01-.04.01-.04c0-.05.02-.08.06-.1.04-.02.08-.06.13-.12s.07-.09.09-.1h.07s.02-.04.02-.11c0-.02,0-.04.03-.06.02-.02.03-.04.03-.08,0-.03.03-.09.08-.17.05-.08.07-.12.07-.14v-.02c-.1.08-.17.13-.21.14-.04,0-.09.06-.16.16l-.09-.02c-.15.11-.25.17-.28.19-.04.01-.08.06-.12.12,0,.02-.01.04-.04.04-.03,0-.07.04-.14.09h-.03c-.09,0-.14-.07-.14-.2l.11-.31c.03-.1.11-.18.23-.25.12-.07.22-.13.31-.19.08-.06.17-.09.25-.1l.04-.05c.12-.05.21-.12.25-.22.04-.1.1-.15.18-.15.2,0,.35.07.46.22.11.15.16.26.16.35v.15s0,.12-.02.21c-.04.07-.07.11-.07.15,0,.03.02.04.05.04.02,0,.05-.02.09-.05.04-.03.08-.06.12-.08.05-.03.07-.05.08-.07.04-.09.1-.15.19-.18.09-.03.15-.06.17-.08l.05-.04.04-.08c.1-.04.16-.08.2-.12.03-.04.08-.06.13-.07s.12-.04.18-.1l.08-.02.08-.04s.03-.02.07-.03c.04-.01.09-.03.16-.06s.12-.04.14-.04c.18,0,.33.07.44.22.11.15.16.27.16.36v.1s.01.15.01.15v.02l-.04.3v.1c.01.17-.03.29-.1.35-.02,0-.03.02-.03.05v.05l.11.23c.03.08.06.12.08.12l.17-.05c.05-.01.09-.05.13-.11.03-.01.08-.06.15-.13.02-.06.06-.09.1-.09Z" fill="#16131a"/><path d="M107.84,38.49v.1s.01.02.01.02c0,0,0,.05-.02.12-.05.06-.09.14-.09.24l-.07.1c0,.05-.02.09-.05.12s-.06.09-.09.17c-.03.09-.06.18-.09.28l-.12.31s0,.02.02.02c0,0,.02,0,.03-.01.02,0,.03-.01.05-.01s.03,0,.04.01.02.01.03.01.03-.01.08-.04.1-.04.15-.05l.2-.05s.13-.02.27-.02h.17c.13-.01.27.02.41.09.14.07.22.14.26.22s.05.2.05.37c0,.13-.05.2-.14.2-.05,0-.12-.03-.21-.1-.09-.07-.14-.16-.18-.26s-.09-.16-.16-.16l-.14-.04-.08.02h-.02s-.05-.01-.1-.03h-.02l-.16.04h-.22l-.1.05s-.11.02-.17.03-.11.02-.16.04c-.05.02-.07.04-.07.06,0,.11-.05.21-.15.29-.04.06-.06.1-.06.14,0,.03-.02.07-.06.11-.04.04-.08.11-.12.19l-.04.08s-.02.04-.02.05c0,0,0,.02.01.04v.05c0,.1-.06.2-.18.29v.05s-.03.07-.09.12l.02.11s-.02.04-.06.09c-.04.04-.07.1-.1.15-.03.06-.08.11-.16.15v.03l.03.07s.02,0,.02.02c0,.03-.03.06-.08.11-.01.06-.04.11-.08.17l-.22.3c-.04.05-.05.09-.05.12l-.04.1s-.07.07-.08.1-.06.1-.14.2c-.08.1-.13.15-.16.15.02.04.03.07.03.08,0,.04-.03.1-.09.16-.1,0-.14.02-.14.06l.03.11s-.02.04-.06.07c-.04.03-.07.04-.1.04h-.08l.02.1s-.04.07-.07.08c-.03.01-.08.06-.14.13s-.12.11-.14.13l-.07.04-.21.02c-.06-.02-.17-.08-.33-.18-.17-.1-.26-.2-.28-.29s-.04-.21-.04-.38c0-.02.02-.05.05-.09v-.04s.01-.1.01-.1c0,0,.02-.07.05-.19s.07-.19.09-.2c.03-.01.07-.08.12-.21s.1-.21.12-.26l.5-.73s0-.08.02-.09h.03s.05,0,.06-.03c.01-.02.03-.04.05-.07,0-.07.03-.12.1-.17.06-.04.11-.09.13-.14.03-.05.06-.1.1-.14v-.03s.06-.03.11-.05c.05-.02.08-.05.08-.08l.18-.18s.05-.03.09-.05c.04-.02.08-.06.12-.12l.04-.02h.05c.04-.11.09-.16.13-.16.04,0,.07-.02.09-.03,0-.11.06-.17.19-.17.03,0,.05,0,.07-.02l.13-.1s.05-.08.1-.21h0s.1.02.1.02v-.03s-.01-.12-.01-.12c.01-.01.03-.06.07-.15.03-.08.06-.13.09-.15.03-.01.04-.03.04-.05v-.13s.01-.04.01-.04v-.09s.05-.08.08-.2c.01-.01.03-.03.06-.04l.25-.69s.02-.07.03-.14l.04-.06c.04-.12.07-.19.07-.22,0-.02,0-.02-.02-.02-.02,0-.05.02-.1.06-.05.04-.09.06-.12.06l-.09-.02h-.02s-.05.02-.09.05c-.04.04-.06.05-.07.05h-.07c-.04.07-.07.11-.1.11l-.14.09h-.01l-.08-.05s0-.01-.03-.01c-.01,0-.04.04-.07.13l-.17.08s-.06-.01-.07-.01c-.04,0-.07.03-.1.1-.03.07-.08.1-.13.11-.03.03-.1.06-.2.08l-.32.22s-.06.03-.08.05c-.08,0-.15.05-.21.12h-.15s-.07.01-.11.06-.07.07-.11.07h-.1s-.18.03-.18.03c-.05,0-.13-.04-.23-.12-.11-.08-.16-.15-.16-.2l-.03-.24s.02-.03.04-.08c.03-.04.04-.07.04-.09,0,0,0-.02-.01-.04v-.04c0-.13.05-.28.14-.46v-.02s-.01-.02-.03-.02c-.05,0-.09.04-.12.12-.03.08-.07.13-.11.17s-.07.06-.09.08c-.02.02-.04.03-.05.03-.02-.02-.05-.03-.07-.03,0,0-.02-.03-.04-.07-.02-.04-.05-.07-.08-.09-.04-.02-.06-.06-.06-.12,0-.04.05-.09.16-.16l.07-.07c.17-.17.28-.26.33-.27l.03-.08c.05-.04.11-.1.19-.17s.14-.12.2-.15l.29-.26c.09-.08.21-.12.36-.12.12,0,.17.07.17.22s-.03.26-.08.34c-.05.08-.08.16-.1.22-.01.07-.06.16-.14.27-.08.11-.13.19-.15.24-.02.05-.05.12-.11.22s-.08.17-.08.25c0,.04.02.05.07.05.06,0,.14-.03.23-.1l.05-.02s.07-.03.11-.05l.14-.06c.03-.05.07-.09.12-.11l.1-.05s.11-.05.19-.08c.07-.03.12-.07.14-.1s.05-.06.08-.08c.03-.02.07-.05.12-.09.09,0,.22-.08.39-.24.17-.1.32-.19.47-.29.15-.1.24-.17.29-.21.02-.02.06-.03.12-.06.06-.03.12-.07.19-.12.07-.06.16-.08.27-.08.09,0,.18.03.27.11s.13.14.13.21v.26c-.01.17-.06.31-.15.42-.02.14-.05.24-.08.3v.12s-.03.06-.11.11ZM105.27,42.65l.03-.08s.03-.05.08-.08c.04-.16.09-.26.15-.3,0-.08,0-.12.01-.14l.08-.07.21-.36c.02-.05.04-.1.07-.14.03-.05.05-.09.06-.13,0-.05.06-.15.18-.3v-.04c0-.05-.01-.08-.03-.08-.02.02-.06.05-.11.08l-.35.29s-.07.07-.15.17l-.1.11c-.06.06-.1.1-.13.12s-.07.07-.11.16c-.05.09-.08.13-.12.13h-.02s-.02,0-.05-.03c-.02.01-.03.03-.03.05l.03.13s-.02.04-.04.07c-.03.03-.05.06-.07.1-.02.04-.04.06-.06.07-.02,0-.06.07-.12.2l-.1.05c-.01.21-.08.39-.2.52-.03.06-.05.12-.07.17-.02.06-.03.09-.05.11-.02.13-.06.21-.11.23-.02,0-.02.02-.02.03,0,.02.02.04.05.07l.02.02c-.05.14-.07.25-.07.32,0,.01,0,.02.02.02l.16-.08c.12-.06.19-.12.23-.21l.09-.17s.04-.04.08-.04c.02-.08.06-.12.11-.15s.07-.05.07-.09.07-.16.2-.37c.14-.21.21-.33.21-.36Z" fill="#16131a"/><path d="M111.68,39.24l-.25.22s-.03-.02-.04-.02c-.04,0-.08.03-.13.1-.05.07-.09.1-.11.1h-.05c-.09.06-.16.1-.2.11-.04.01-.09.03-.14.06-.06.03-.11.05-.15.05-.04,0-.08.02-.11.05-.03.03-.1.04-.21.04h-.09s-.08.02-.09.02c-.03,0-.06-.02-.09-.05-.03-.03-.07-.05-.11-.05-.04,0-.08-.03-.12-.08-.04-.05-.08-.08-.11-.1-.03-.02-.06-.04-.08-.08l-.08-.07c-.06-.04-.12-.12-.18-.24-.06-.12-.09-.21-.09-.27v-.12s0-.12,0-.12c.02-.01.03-.05.05-.09v-.17l.13-.43s0-.04-.04-.07c-.03.05-.07.09-.11.1-.04.01-.06.04-.07.08-.01.04-.03.06-.06.06l-.07-.02s-.02.04-.05.11c-.02.07-.07.1-.13.1-.07,0-.1-.03-.1-.08v-.1s-.02-.14-.02-.14c0-.03.03-.09.09-.17.06-.08.11-.13.16-.15.05-.01.09-.05.12-.1.03-.06.11-.12.23-.2.07-.02.12-.06.17-.14.05-.04.12-.07.2-.1.08-.03.14-.06.18-.11.04-.05.17-.12.37-.23s.36-.15.45-.15c.03,0,.07,0,.12-.02.05-.02.1-.03.14-.04s.09-.03.14-.06.08-.04.12-.04l.16.05c.12.03.19.06.21.07,0,0,.04.02.11.05.07.02.14.06.21.1.07.04.11.11.11.22-.06.09-.09.14-.09.15,0,.01.04.04.12.07.03.05.07.12.13.21l.06.19v.45s0,.04,0,.04c-.04.04-.06.06-.06.07l.02.11-.04.15s-.03.08-.05.09-.04.03-.05.05l-.03.04s-.02.04-.05.09c-.02.05-.05.09-.08.12-.03.03-.05.06-.05.1,0,.04-.03.07-.05.09-.03.02-.05.04-.06.06-.01.02-.03.04-.06.05ZM110,39.38l.02.12h.01s.09.01.09.01h.03c.07.02.13.03.16.03.11,0,.2-.03.27-.08.07-.06.12-.08.16-.08.04,0,.07-.03.1-.08.03-.05.04-.08.05-.08h.1c0-.09.04-.15.11-.19s.13-.08.16-.14.07-.1.11-.14c.04-.03.07-.07.08-.12l.04-.07s.02-.04.02-.08l.1-.2c.02-.09.03-.16.03-.21,0-.08-.04-.14-.12-.18-.08-.04-.12-.13-.12-.26,0-.08.04-.16.13-.23.08-.07.13-.11.13-.13,0-.02-.01-.03-.03-.03-.01,0-.05.01-.12.04-.03.05-.15.12-.38.2-.08-.04-.12-.05-.12-.05-.02,0-.04.02-.07.07s-.04.07-.07.09h-.07s-.03.02-.07.07c-.04.05-.09.07-.15.07l-.07.07c0,.06-.03.12-.11.18l-.06.07s-.08.09-.14.15l-.1.24c-.04.09-.06.17-.06.21-.01.02-.03.04-.07.07-.04.02-.06.05-.06.09,0,0,.01.02.04.05.02.03.04.05.04.07l-.02.07-.02.2.05.17Z" fill="#16131a"/><path d="M113.3,37.6l.08.03c0-.06.04-.11.1-.16h.04s.08-.05.14-.15l.09-.05s.04.01.07.01c.02,0,.04-.02.06-.04.02-.03.07-.09.15-.17h.02s.05-.02.08-.05.07-.05.12-.05l.19-.05c.06-.02.09-.02.1-.02.03-.01.11.05.24.2s.19.28.19.42c0,.08-.04.12-.12.14l-.03.02v.11l-.09.2c-.03.05-.06.09-.09.1-.03.06-.06.1-.07.12h-.08s-.03.04-.03.04v.14s-.08.14-.14.28c-.06.15-.09.24-.09.28,0,.07.01.1.04.1.02,0,.04,0,.07-.03s.05-.04.09-.06c.04-.02.07-.05.08-.07s.06-.05.11-.07c.06-.02.11-.06.16-.11.05-.05.09-.09.11-.11s.05-.04.07-.07c.03-.03.04-.05.05-.05.02,0,.06,0,.1-.02,0-.04.02-.07.02-.09l.13-.07.31-.28.04-.05c.06-.02.09-.03.11-.03.03-.1.08-.17.15-.21,0-.02.02-.03.05-.03.03-.06.07-.1.11-.14.04-.03.08-.08.11-.13l.12-.1s.06-.04.08-.07c.19-.17.31-.26.35-.29.05-.02.12-.03.22-.03s.18.04.25.12c.06.08.13.14.21.18.07.04.11.12.11.23,0,.1-.08.31-.25.6-.1.31-.16.5-.16.57,0,.07-.02.11-.05.12-.03.01-.04.02-.04.04v.02c0,.09.01.13.04.13.02,0,.05-.02.09-.05s.12-.08.23-.12h.05c.11-.15.17-.23.21-.25.03-.01.07-.04.11-.1.04-.05.08-.08.13-.08.05,0,.09-.01.1-.03,0-.09.07-.18.21-.29s.22-.16.24-.16c.04,0,.07.03.09.08s.04.09.07.11c.02.02.03.04.03.05v.1s-.02.08-.07.09c-.04.08-.07.13-.1.14h-.1s-.03.03-.05.05c-.01.02-.02.02-.02.02-.03,0-.08.06-.16.14-.07.09-.14.16-.2.22l-.02.03s-.06.04-.08.04l-.1.08s-.06-.03-.07-.03-.02.01-.05.04c-.02.03-.07.07-.14.11-.07.05-.12.1-.16.16l-.09.09-.11.02s-.03.02-.05.05l-.1.12c-.05.06-.12.09-.22.09-.02,0-.05-.02-.08-.06-.03-.04-.07-.07-.1-.1-.03-.03-.1-.11-.21-.24-.11-.14-.16-.21-.16-.21l.03-.19v-.13s0-.06.04-.12c.03-.05.05-.08.05-.08v-.21s0-.02.01-.03l.08-.12s-.01-.08-.01-.12l.02-.18c-.07.03-.12.09-.17.18-.05.09-.11.13-.19.13-.07.12-.12.18-.16.18-.01.01-.02.03-.03.04l-.08.04h-.09s-.03.12-.03.12c-.08.04-.13.08-.16.12-.02.03-.06.07-.11.11l-.09.09h-.09c-.01.1-.07.18-.17.24l-.04.05h-.1c-.04.11-.08.18-.14.2-.06,0-.15.06-.25.17s-.18.17-.23.17c-.31,0-.57-.2-.76-.59,0-.01-.02-.04-.05-.08-.03-.04-.04-.1-.04-.18,0-.14.02-.24.06-.29s.09-.15.15-.29c.06-.14.1-.2.13-.18,0-.02.01-.04.01-.07.06-.07.09-.12.09-.16,0-.02,0-.02-.02-.02,0,0-.03.01-.07.03l-.08.03s-.06.02-.07.04c-.01.02-.04.04-.08.06-.04.02-.07.04-.09.05h-.02s-.04-.03-.04-.03c-.02.06-.04.09-.05.11h-.07c-.08.09-.13.14-.15.14-.02,0-.05-.01-.1-.04-.05-.03-.08-.05-.08-.08l.04-.21v-.1s.01-.02.04-.04c0,0,.04-.04.09-.12.05-.08.11-.12.18-.12Z" fill="#16131a"/><path d="M119.36,37.17l.08-.02.03-.07c.18-.11.31-.21.38-.3,0-.02.02-.03.05-.04.02-.02.05-.04.08-.08.13-.13.29-.2.48-.2.22,0,.33.13.35.4l.03.08s.07.15.12.31c.05.16.08.25.08.29,0,.1-.03.2-.09.29-.05.02-.17.16-.36.41l-.05.04c-.03.07-.07.13-.11.2-.07.02-.11.05-.11.08v.1s0,.02-.02.04c-.02.02-.04.06-.07.12l-.04.07s-.03.04-.04.09c-.02.05-.03.09-.06.12-.03.04-.04.07-.04.09,0,.05.07.08.21.08,0,0,.03-.01.08-.03l.08.02s.02-.01.05-.04c.03-.02.07-.04.13-.06.06-.01.11-.04.16-.07s.1-.05.16-.08.12-.06.18-.11c.06-.05.12-.08.17-.11.06-.02.11-.06.16-.1.05-.04.1-.09.17-.13s.16-.13.29-.26c.09-.07.15-.11.18-.11,0,0,.04-.05.1-.14.06-.1.12-.14.19-.14s.11.04.11.11c0,.04-.02.08-.05.11v.12s.02.03.02.05c0,.01-.01.04-.04.07-.03.03-.05.07-.06.11-.01.05-.05.07-.1.09-.02.08-.05.12-.08.14-.03.01-.08.05-.14.11s-.15.13-.26.22-.19.15-.23.19c-.04.05-.07.07-.08.07,0,0-.02,0-.04-.02s-.04-.02-.04-.02c-.02,0-.04.02-.04.08l-.02.05s-.07.04-.08.04h-.03s-.02-.01-.02-.01c-.04,0-.07.02-.07.05l.03.05h0c0,.06-.03.09-.09.09-.04,0-.16.07-.35.2l-.16.03-.13.07s-.07-.04-.08-.04l-.09.03h-.16s-.07-.02-.2-.1c-.13-.07-.2-.14-.23-.22-.02-.07-.06-.15-.1-.22-.04-.07-.06-.12-.06-.15,0-.17.01-.3.04-.37.03-.07.05-.13.05-.17s.03-.07.06-.12c.03-.04.06-.11.08-.2.11-.21.18-.34.22-.39.04-.05.07-.11.09-.17l.07-.1s.02-.04.03-.08c.02-.05.03-.08.05-.08.03-.05.04-.08.04-.1,0-.11-.05-.16-.14-.16-.02,0-.04.02-.06.06s-.07.07-.15.11c-.08.04-.13.06-.14.08-.02.02-.06.04-.12.07-.06.03-.11.07-.16.13l-.09.04c-.03.07-.05.11-.08.11-.02,0-.09.02-.2.05,0,0-.02.02-.05.07-.03.04-.07.06-.12.06-.04.04-.09.09-.13.15-.02,0-.05.01-.12.04l-.11.03s-.06.06-.09.1c-.03.05-.1.07-.19.07-.05,0-.08-.04-.08-.13,0-.18.06-.32.19-.42.12-.11.22-.16.27-.17.06,0,.09-.03.11-.07.01-.04.05-.07.11-.09.06-.02.12-.08.2-.16.07-.08.16-.14.24-.17l.07-.08Z" fill="#16131a"/><path d="M125.26,37.82l.04-.06c.09-.02.15-.06.18-.11.01-.03.1-.12.27-.28.17-.16.26-.25.28-.26.12-.21.19-.37.21-.47.04-.02.06-.05.06-.08l.04-.09h.05s.02-.03.02-.03v-.05c0-.07.07-.22.21-.46.14-.29.22-.45.23-.49s.03-.08.07-.14.08-.17.15-.35c.07-.17.17-.35.31-.53.01,0,.04-.05.07-.12.03-.07.07-.15.14-.22l.07-.11s.06-.1.11-.19c.05-.09.1-.16.15-.21.05-.05.08-.11.1-.17.02-.06.05-.1.08-.12s.07-.07.1-.14c.03-.07.09-.1.16-.1.14,0,.24.06.31.17.06.12.09.22.09.3,0,.01-.02.09-.07.23l-.08.49c-.07.04-.11.08-.11.12,0,.19-.07.39-.22.6-.01.02-.03.06-.04.14,0,.08-.04.15-.09.2-.05.05-.1.14-.15.26l-.5.72-.04.04s-.05.05-.08.09l-.09-.03c-.1,0-.15.03-.15.09,0,.02,0,.05.02.09h0s-.13.2-.4.58c-.02.02-.04.09-.08.21l-.08.16c-.08.1-.13.21-.16.31-.03.1-.07.18-.12.24-.07.16-.11.25-.11.26,0,.02.01.03.03.03s.07-.05.15-.16c.08-.11.15-.18.2-.22.05-.04.1-.09.13-.15l.05-.04s.05-.03.09-.07h.06s.05-.04.05-.07c0-.03.02-.05.03-.07.09-.01.15-.05.18-.1.02-.06.05-.09.08-.09.03,0,.07-.03.11-.1s.11-.12.2-.16.15-.08.19-.11c.04-.03.13-.07.25-.12s.21-.07.26-.07h.08s.08,0,.08,0c.13,0,.25.03.38.11s.18.18.16.33l-.04.34-.06.27s-.04.14-.09.29c-.05.15-.08.23-.08.26l-.02.1.02.14v.11s0,.05.04.05c.02,0,.05-.03.12-.1.04,0,.08-.01.11-.07.04-.05.08-.1.15-.16,0-.02.02-.03.07-.04.05-.01.11-.06.19-.13.01-.03.08-.1.21-.21.13-.11.25-.19.36-.25l.03-.04c.06-.06.12-.09.17-.09s.08.03.08.08c0,.04,0,.07-.03.11-.02.04-.03.09-.04.15,0,.06-.04.16-.11.27l-.02.05c-.03.06-.06.1-.09.11s-.07.04-.12.09-.13.1-.26.14c-.06.11-.1.16-.13.16l-.1-.04c-.08.06-.11.12-.11.19-.09.08-.15.13-.17.16h-.11s-.04.03-.04.11c0,0-.04.03-.11.07-.07.04-.13.08-.17.11-.04.03-.12.05-.25.05-.02,0-.04-.01-.07-.04s-.07-.05-.13-.07c-.06-.02-.09-.06-.12-.13-.02-.07-.04-.12-.07-.16-.02-.04-.04-.07-.04-.09v-.11s-.02-.11-.02-.11l.05-.08c-.02-.05-.03-.08-.03-.1l.05-.33c.04-.24.07-.4.1-.47,0,0,.01-.03.01-.07v-.14s0-.08,0-.08c0-.05-.02-.08-.05-.09-.04,0-.06-.01-.07-.03-.05-.02-.07-.03-.08-.03-.03,0-.05.02-.08.07s-.05.09-.09.12l-.14-.02h0s-.05.1-.15.18c-.09.02-.17.07-.23.14-.03,0-.08.03-.15.08-.07.06-.12.09-.14.1l-.04.09-.09.03c-.02.07-.09.12-.18.14l-.05.1c-.08,0-.13.05-.16.12-.03.07-.05.11-.07.11,0,0-.02,0-.03-.01-.02,0-.03-.01-.05-.01-.08,0-.12.06-.13.18,0,.01-.07.1-.22.26s-.23.24-.24.24-.03.04-.06.11-.07.12-.13.16c-.05.03-.09.06-.12.08s-.05.03-.06.03c-.08,0-.14-.05-.18-.16s-.07-.17-.07-.17l.03-.11v-.1s.01-.08.06-.22c.05-.14.1-.26.15-.34.06-.08.1-.21.14-.4-.16.11-.26.16-.29.16-.07,0-.11-.05-.11-.14,0-.17.06-.33.17-.47Z" fill="#16131a"/><path d="M130.73,37.59l.11-.09c.09,0,.13-.05.14-.14,0-.08.07-.16.18-.22l.07-.09c.05-.05.2-.12.44-.21.06-.04.1-.07.13-.1,0,0,.01-.01.02-.01l.09.02s.11-.01.18-.04c.07-.03.15-.04.21-.04h.23s.04,0,.09.02c.04.02.1.03.17.03.08,0,.15.04.22.11.07.07.1.14.1.2,0,.11-.06.23-.17.34s-.21.18-.28.2c-.06.06-.11.1-.14.12s-.07.04-.1.08c-.03.03-.06.05-.08.05-.01,0-.02,0-.03-.01,0,0-.02-.01-.03-.01-.06,0-.12.07-.19.21h-.1c-.06.03-.1.07-.12.12-.02.05-.06.07-.11.07-.13.13-.22.2-.27.2,0,0-.03,0-.08-.02-.03.04-.04.07-.04.11,0,.04-.03.07-.09.08l-.07.07h-.05s-.11.1-.11.1c-.05,0-.11.02-.17.05,0,.04-.02.1-.03.17-.01.07-.02.1-.02.11,0,.11.1.16.29.16l.26-.04c.07,0,.13-.02.19-.05.06-.04.12-.05.19-.05.02,0,.05,0,.1-.02l.05.02c.02-.05.07-.1.14-.15s.12-.07.16-.07l.05-.03s.04-.07.07-.09l.04-.04s.06-.04.08-.04h.1c.04-.11.1-.16.18-.18s.13-.04.15-.08c.02-.04.06-.06.11-.07.05,0,.09-.03.13-.07.03-.04.08-.08.13-.12.05-.04.08-.06.11-.08.02-.02.04-.03.05-.03.02,0,.03.02.03.05s0,.05.02.05c.02,0,.02,0,.02-.02,0-.02,0-.03-.01-.05v-.04c0-.05.03-.09.09-.11l.25-.16c0-.08.03-.12.06-.13.03-.01.06-.03.08-.04.02-.02.04-.02.06-.02.05,0,.07.03.07.08l-.03.14.03.15s-.02.05-.05.09-.06.1-.08.17c-.02.08-.04.12-.07.13h-.03c-.07.07-.12.11-.15.12-.04.01-.07.04-.09.07l-.18.21s-.07.07-.09.1c-.03.03-.05.04-.06.04l-.04-.04s0-.01-.02-.01c-.04,0-.06.02-.07.07s-.03.08-.06.11c-.11.05-.18.1-.21.14h-.03s-.1.01-.1.01c-.05,0-.08.03-.1.11-.02.07-.07.11-.15.12-.09.01-.15.03-.18.07,0,0-.02.01-.05.02s-.08.04-.15.09l-.46.16s-.06.03-.07.03l-.15.02s-.04-.01-.07-.04-.04-.04-.04-.04l-.1.03c-.07.02-.14.03-.21.03-.04,0-.08-.01-.12-.04s-.08-.04-.1-.05c-.11,0-.18-.08-.22-.24h-.07s-.06-.12-.15-.37c-.02-.03-.06-.05-.1-.06-.05-.01-.07-.05-.07-.11,0-.16.03-.27.11-.33.07-.06.11-.1.12-.13l.08-.28s.03-.05.05-.11l.12-.23s.05-.09.1-.19ZM131.88,37.27l-.07.03s-.06.04-.13.09-.14.1-.21.14c-.07.03-.14.12-.21.27-.07.14-.11.23-.11.25s.01.03.03.03l.18-.08c.07-.03.13-.07.19-.12.06-.05.15-.11.26-.18l.04-.04s.04-.04.1-.08.1-.07.13-.11l.05-.02c.06-.1.12-.16.19-.18s.1-.04.1-.07c0-.04-.03-.07-.1-.07-.03,0-.07.02-.13.05h-.12s-.05.02-.12.07l-.09.02Z" fill="#16131a"/><path d="M137.72,38.4l.09-.08c.05,0,.09-.02.1-.07s.05-.09.12-.12c.07-.03.13-.09.19-.18.06-.09.12-.13.18-.13.02,0,.05.02.07.05.03.04.04.07.04.09,0,.12-.04.24-.11.37l-.02.15-.04.07c-.05.03-.09.06-.11.09-.02.03-.06.07-.13.12l-.06.08c-.08.02-.13.07-.16.12-.03.06-.07.09-.11.1s-.1.04-.16.11c-.04.02-.08.03-.13.05v.05s-.1.07-.18.09-.14.04-.17.06c-.04.02-.07.03-.08.03-.07,0-.13-.01-.19-.04-.06-.03-.12-.04-.18-.05-.02-.02-.03-.05-.04-.07,0-.02-.02-.06-.05-.1-.03-.04-.05-.1-.05-.17l.02-.1s0-.03-.03-.05c-.02-.02-.03-.04-.03-.05s0-.02.01-.03c0,0,.01-.02.01-.03,0-.02,0-.04-.01-.06,0-.02-.01-.04-.01-.05l.03-.27s0-.03-.02-.03c-.02,0-.04.02-.08.05-.04.04-.08.05-.13.05-.03.02-.05.07-.07.14-.03.04-.07.07-.11.1l-.02.03s-.03.05-.08.06c-.05.02-.08.04-.1.06l-.05.05h-.1s-.03.03-.06.08c-.03.06-.07.1-.12.14l-.41.34s-.11.07-.19.11l-.03.03c-.29.19-.49.29-.61.29-.1,0-.21-.03-.34-.08s-.2-.12-.21-.2l-.05-.22c-.03-.05-.05-.12-.05-.21,0-.04,0-.07.01-.09v-.21s.02-.07.09-.07v-.15s.02-.07.08-.17c.06-.1.11-.16.13-.17l.05-.07s.02-.09.08-.14.1-.1.13-.15c.03-.05.09-.11.18-.17l.16-.16c.13-.13.26-.23.41-.3.02,0,.07-.04.13-.11s.14-.11.23-.14.17-.07.25-.12c.08-.05.15-.07.19-.07h.04s.11-.05.29-.14h.03s.05.01.1.04h.01l.09-.04s.03-.01.05-.01c.22,0,.35.16.37.47,0,.07.02.1.05.1.03,0,.09-.07.15-.2s.21-.2.43-.2c.16,0,.23.1.23.3,0,.23-.11.46-.31.67-.02.03-.03.06-.03.1l-.08.22h0s-.02.06-.05.1c-.03.04-.05.07-.05.1v.14s-.01.15-.01.15c0,.07.01.11.04.14.12-.03.2-.08.25-.14.05-.07.09-.1.11-.11l.05-.02c.03-.05.07-.1.11-.14ZM135.91,38.4c.01-.08.06-.14.13-.18.07-.04.12-.08.13-.13.07-.05.17-.14.3-.27.13-.13.19-.21.19-.24,0-.01,0-.02-.02-.02h-.01l-.04.03h-.1s-.1,0-.1,0l-.08-.04h-.07s-.11-.01-.11-.01c-.06,0-.11.01-.15.03-.04.02-.12.05-.24.08-.12.03-.22.08-.32.15-.09.07-.16.11-.21.11-.02.05-.11.13-.25.23-.09.03-.14.09-.17.19-.09.08-.14.12-.14.13l-.04.09s-.07.05-.11.06-.07.05-.08.11c0,.06-.03.11-.07.16s-.06.09-.06.12c0,.18.03.27.1.27.03,0,.09-.02.18-.06s.15-.06.16-.08c.02-.01.04-.03.09-.04l.1-.05s.03-.02.05-.03c.02,0,.04-.02.05-.04.02-.02.05-.04.1-.07.05-.02.08-.05.11-.09.06-.04.16-.09.3-.17l.11-.09c.08-.04.13-.07.15-.09.02-.03.05-.05.11-.08Z" fill="#16131a"/><path d="M138.58,39.28l-.04-.28s.01-.06.03-.1c.02,0,.04,0,.05-.02l-.03-.1c0-.13.03-.24.11-.33.07-.09.11-.15.12-.19s.06-.14.16-.32.17-.29.21-.34l.03-.07h.04c.08-.15.2-.27.35-.37.05-.08.11-.15.18-.2.07-.05.12-.09.15-.11.03-.02.06-.04.12-.04h.02c.1-.12.2-.17.27-.17.02-.03.08-.05.15-.09h.06s.04,0,.07-.02c.02-.02.04-.02.07-.02.01,0,.05.01.11.04.06-.06.11-.09.14-.09.08,0,.15.03.23.09.08.06.13.13.15.21.02.08.04.13.05.15.01.01.03.03.04.05.03,0,.07-.07.11-.2l.07-.09c.1-.13.17-.28.2-.45,0,0,.02-.04.03-.09.02-.05.05-.14.12-.27.11-.15.18-.31.22-.47l.07-.1s.07-.06.07-.09c0-.03.02-.07.03-.1.02-.03.04-.06.06-.11s.04-.07.06-.08c.02-.01.04-.06.07-.15.03-.09.07-.13.11-.14s.08-.03.13-.06v-.04s-.01-.08-.01-.08c0-.04.05-.12.14-.23s.17-.2.21-.27.11-.18.21-.33c.1-.15.17-.24.21-.27l.13-.13c.06-.08.14-.12.24-.12.08,0,.16.04.25.13.09.08.13.17.13.25,0,.03-.02.1-.06.2v.07c-.01.06-.03.13-.07.21-.04.08-.06.14-.07.18l-.3.74s-.06.03-.07.03c-.09.21-.17.32-.22.34v.11s-.02.07-.08.09h-.02c-.03.15-.07.25-.12.31-.05.06-.09.12-.11.19s-.06.1-.11.11c-.05,0-.08.08-.08.21-.01.07-.05.11-.11.11-.05,0-.09.05-.1.14-.02.09-.09.14-.21.15-.04.02-.06.05-.07.08l.04.14s-.07.11-.2.26l-.04.14c-.07.02-.13.21-.17.56l-.07.37v.15s-.01.08-.01.08l.07.22v.12c-.01.06.01.09.05.09.02,0,.07-.03.15-.1l.08-.03c.23-.12.37-.23.42-.34.02-.02.04-.03.08-.04.04-.02.07-.03.08-.06.02-.03.03-.04.04-.05.22-.15.36-.27.43-.38s.13-.17.2-.2l.04-.04s.08-.05.11-.05c.06,0,.09.02.09.05l-.04.15c.04.1.05.15.05.17,0,.13-.06.2-.17.23-.05.05-.08.1-.11.16-.03.06-.09.1-.18.11-.06.09-.12.14-.17.17-.05.03-.08.06-.08.08v.05s-.05.07-.08.09l-.1-.02s-.05.1-.1.18c-.02-.01-.03-.02-.05-.02-.05,0-.09.03-.12.09s-.06.09-.07.09h-.12s-.05.03-.09.07-.11.05-.2.05l-.17.03c-.16,0-.31-.05-.44-.16-.13-.1-.21-.2-.21-.28,0-.08-.04-.19-.09-.31v-.22c-.05-.23-.1-.35-.15-.35v.07s-.05.02-.05.02c-.02.11-.06.17-.11.17-.02.01-.05.03-.07.05l-.03.02s-.04.04-.06.09c-.03.05-.1.13-.23.23-.05.13-.09.2-.12.2l-.07-.04h-.01s-.05.04-.07.13c-.02.09-.05.13-.11.13-.01,0-.03.02-.04.07-.01.05-.05.08-.1.09-.05.01-.1.06-.14.15-.04.09-.07.13-.08.13,0,0-.02,0-.03-.01l-.09.02s-.04.07-.08.12c-.03.01-.06.02-.09.04-.11.11-.26.16-.45.16-.13,0-.23-.03-.31-.08-.08-.06-.12-.1-.14-.14s-.04-.09-.08-.15-.07-.13-.08-.22ZM140.75,38.05l.04-.07c.06-.02.1-.08.12-.16.03-.02.1-.12.22-.28.12-.17.18-.26.18-.28-.04-.04-.08-.05-.12-.05,0,0-.03,0-.07.02-.04.01-.07.02-.11.03-.04,0-.08.02-.12.04l-.14-.02s-.13.05-.27.16l-.12-.02s-.06.05-.11.14l-.28.22h-.03c-.05,0-.09.04-.1.14-.06.08-.12.13-.17.17-.05.03-.09.07-.11.13v.07c-.1.11-.15.2-.15.26-.08.07-.12.15-.15.23s-.05.15-.08.21c.02.05.03.11.03.19,0,.07.04.11.11.11.11,0,.22-.06.35-.19,0,0,.04-.03.09-.06s.13-.1.22-.19c.1-.1.15-.15.16-.15.04-.04.06-.05.07-.05l.04-.04s.02-.03.05-.05c.03-.02.07-.06.12-.11.05-.06.09-.09.12-.1.03-.01.05-.03.06-.05.01-.02.03-.04.05-.06.02-.02.04-.04.04-.06v-.07s.08-.05.08-.05ZM142.63,35.84l-.05.16s.09-.06.13-.15c.11-.16.18-.25.22-.29.05,0,.08-.03.11-.09s.07-.12.13-.18c0-.02.03-.07.08-.15.05-.07.09-.12.11-.15s.05-.07.1-.12c.05-.05.1-.14.14-.26.04-.12.08-.2.12-.22.03-.02.05-.08.05-.15,0-.1,0-.16-.02-.16-.03,0-.06.02-.07.06-.02.04-.05.09-.11.16l-.18.31c-.07.12-.12.22-.14.29-.02.07-.05.12-.08.13-.03.01-.07.05-.11.11l-.08.08s-.03.1-.04.16l-.05.04v.1s-.03.09-.08.13-.08.06-.08.07l-.07.12Z" fill="#16131a"/><path d="M144.86,39.48l.1.08c.05.03.08.09.08.19,0,.02,0,.05-.03.08-.02.03-.03.06-.05.09-.13.25-.27.37-.45.37-.05,0-.14-.05-.25-.15-.12-.1-.19-.19-.22-.27s-.06-.13-.08-.15-.03-.04-.03-.05c0-.04.02-.08.05-.13s.05-.11.07-.18c.02-.07.05-.12.12-.16.06-.03.11-.07.14-.1.03-.03.07-.05.11-.05.03,0,.06.01.09.04.03.02.07.05.12.08.05.03.11.09.16.18l.07.13Z" fill="#16131a"/></svg>