<?xml version="1.0" encoding="UTF-8"?><svg id="uuid-3df9c202-9466-4198-8fb7-6d0567c716d5" xmlns="http://www.w3.org/2000/svg" width="194" height="54" viewBox="0 0 194 54"><text transform="translate(12.89 39.55)" fill="#f3f3f4" font-family="BaskOldFace, &apos;Baskerville Old Face&apos;" font-size="38.15"><tspan x="0" y="0">R</tspan></text><path d="M1.57,21.43C4.26,10.65,14.01,2.66,25.62,2.66s21.43,8.04,24.08,18.87" fill="none" stroke="#f3f3f4" stroke-miterlimit="10" stroke-width="3"/><path d="M49.69,33.46c-2.68,10.79-12.44,18.79-24.06,18.79S4.35,44.34,1.6,33.64" fill="none" stroke="#f3f3f4" stroke-miterlimit="10" stroke-width="3"/><path d="M67.43,20.52h-3.78v9.87h-2.26v-9.87h-3.78v-2.11h9.82v2.11Z" fill="#f3f3f4"/><path d="M77.19,26.05v4.34h-2.3v-4.24c0-.93-.13-1.86-.6-2.36-.32-.35-.8-.53-1.41-.52-.42.02-.77.13-1.07.35-.33.25-.57.65-.67,1.15-.08.4-.1,1.1-.1,1.71v3.91h-2.28v-11.98h2v3.93s.08-.08.12-.13c.58-.7,1.5-1,2.31-1.05,1.07-.07,2.15.12,3.01.97.98.96.98,2.53.98,3.93Z" fill="#f3f3f4"/><path d="M81.76,27.76c.37.5.98.77,1.65.77.53,0,.95-.13,1.28-.4.33-.27.48-.52.58-.73l2.26.65c-.3.73-.87,1.43-1.56,1.88-.7.45-1.6.72-2.43.72-1.36,0-2.76-.52-3.58-1.5-.73-.9-1.1-1.98-1.1-3.13,0-1.3.38-2.5,1.1-3.36.83-.98,2.11-1.5,3.45-1.5s2.38.43,3.21,1.42c.9,1.05,1.12,2.4,1,3.96h-6.33c.07.45.2.88.47,1.23ZM81.77,23.85c-.23.3-.35.6-.43.93h4.01c-.03-.37-.13-.7-.37-1-.35-.45-.97-.67-1.58-.67-.58,0-1.18.17-1.63.73Z" fill="#f3f3f4"/><path d="M97.59,26.32h-2.51v4.08h-2.26v-11.98h5.06c1.42,0,2.2.35,2.88,1.02.87.83,1.2,1.7,1.22,2.95.02,1.13-.42,2.16-1.08,2.83-.28.28-.6.52-.95.68l2.2,4.51h-2.56l-1.98-4.08ZM95.08,24.2h2.86c.45,0,1-.2,1.35-.63.27-.32.38-.8.38-1.2,0-.43-.1-.97-.4-1.33-.3-.35-.72-.5-1.33-.5h-2.86v3.66Z" fill="#f3f3f4"/><path d="M106.04,27.76c.37.5.98.77,1.65.77.53,0,.95-.13,1.28-.4s.48-.52.58-.73l2.26.65c-.3.73-.87,1.43-1.56,1.88-.7.45-1.6.72-2.43.72-1.37,0-2.76-.52-3.58-1.5-.73-.9-1.1-1.98-1.1-3.13,0-1.3.38-2.5,1.1-3.36.83-.98,2.11-1.5,3.45-1.5s2.38.43,3.21,1.42c.9,1.05,1.12,2.4,1,3.96h-6.33c.07.45.2.88.47,1.23ZM106.05,23.85c-.23.3-.35.6-.43.93h4.01c-.03-.37-.13-.7-.37-1-.35-.45-.96-.67-1.58-.67-.58,0-1.18.17-1.63.73Z" fill="#f3f3f4"/><path d="M119.16,30.39v-1.1c-.9,1.03-1.71,1.35-3.1,1.35-1.81,0-2.96-1.1-2.96-2.78,0-1.16.45-2.06,1.58-2.58s3.03-.72,4.21-.88c-.15-.65-.7-1.12-1.73-1.12-.88,0-1.67.33-2.25.85l-1.3-1.5c.95-.9,2.1-1.48,3.71-1.48.98,0,1.98.43,2.63.98.88.75,1.18,1.76,1.18,2.9v5.36h-1.98ZM118.89,26.17c-.53.1-1.41.28-2.26.47-.68.15-1.3.47-1.3,1.07s.55,1.06,1.28,1.06c.87,0,1.58-.43,1.98-1.03.32-.48.3-1.1.3-1.57Z" fill="#f3f3f4"/><path d="M123.3,30.39v-12.23h2.26v12.23h-2.26Z" fill="#f3f3f4"/><path d="M138.17,22.07c-.3-.6-.55-1.02-1.12-1.35-.38-.23-.87-.43-1.42-.43-.57-.02-1.1.12-1.45.33-.42.25-.62.63-.62,1,0,.22.08.42.23.57.22.23.77.45,1.37.63l2.08.6c1.06.32,1.68.63,2.21,1.13.72.68,1.11,1.56,1.11,2.55,0,1.05-.6,2.15-1.55,2.78-.92.62-2.01.77-3.28.77-1.6,0-2.96-.42-3.94-1.61-.58-.72-.9-1.55-1.08-2.33l2.3-.62c.1.58.3,1.12.6,1.48.48.67,1.42.97,2.21.97.63,0,1.43-.18,1.86-.52.38-.28.48-.65.48-.98s-.12-.62-.37-.83c-.27-.23-.6-.4-1.07-.53l-2.23-.65c-.9-.25-1.72-.6-2.3-1.11-.72-.6-1.03-1.5-1.03-2.33,0-1.32.85-2.45,1.95-2.95.87-.4,1.73-.47,2.53-.47.82.02,1.72.15,2.51.58,1.02.55,1.81,1.5,2.28,2.71l-2.3.62Z" fill="#f3f3f4"/><path d="M145.22,26.45c0,.7-.03,1.28.18,1.61.22.35.6.48.95.52.43.03.98,0,1.46-.07v1.88c-.7.2-1.96.18-2.63.07-.83-.15-1.35-.42-1.83-1.13-.5-.73-.4-1.66-.4-2.75v-3.43h-1.53v-1.75h1.53v-2.5h2.26v2.5h2.6v1.75h-2.6v3.3Z" fill="#f3f3f4"/><path d="M158.07,21.4v8.99h-2v-.93s-.08.08-.12.13c-.58.7-1.5,1-2.31,1.05-1.07.07-2.15-.12-3.01-.97-.98-.97-.98-2.53-.98-3.93v-4.35h2.3v4.25c0,.93.13,1.86.6,2.36.32.35.8.53,1.41.52.42-.02.77-.13,1.07-.35.33-.25.56-.65.66-1.15.08-.4.1-1.1.1-1.71v-3.91h2.28Z" fill="#f3f3f4"/><path d="M168.65,18.41v11.98h-2v-.55c-.7.53-1.6.8-2.6.8-1.18,0-2.36-.52-3.1-1.43-.76-.93-1.05-2.08-1.05-3.31s.35-2.43,1.05-3.31c.77-.95,1.96-1.43,3.21-1.43.8,0,1.56.23,2.2.62v-3.36h2.28ZM166.65,25.9c0-.82-.2-1.6-.63-2.1-.37-.43-.9-.63-1.51-.63-.75,0-1.33.22-1.72.8-.32.47-.48,1.16-.48,1.93s.13,1.46.45,1.93c.38.58,1.03.8,1.67.8s1.2-.2,1.6-.63c.43-.48.63-1.28.63-2.1Z" fill="#f3f3f4"/><path d="M173.41,18.16v2h-2.26v-2h2.26ZM173.41,21.4v8.99h-2.26v-8.99h2.26Z" fill="#f3f3f4"/><path d="M176.51,29.14c-.77-.93-1.1-2.01-1.1-3.24s.38-2.38,1.1-3.25c.83-.98,2.13-1.5,3.45-1.5s2.61.5,3.45,1.5c.8.95,1.11,2.03,1.11,3.25,0,1.28-.35,2.3-1.11,3.24-.85,1-2.1,1.5-3.45,1.5s-2.61-.52-3.45-1.5ZM181.6,24.02c-.36-.5-.98-.75-1.65-.75s-1.28.25-1.65.75c-.38.5-.5,1.2-.5,1.88s.12,1.36.5,1.86c.37.5.98.77,1.65.77s1.28-.27,1.65-.77c.38-.5.52-1.18.52-1.86s-.13-1.38-.52-1.88Z" fill="#f3f3f4"/><path d="M191.24,24.3c-.33-.85-1.03-1.16-1.85-1.2-.7-.03-1.43.27-1.43.72,0,.38.43.48.98.63l1.67.47c1.7.47,2.83,1.4,2.83,2.88,0,.92-.5,1.78-1.28,2.25-.76.48-1.5.6-2.36.6-1.32,0-2.45-.28-3.25-1.22-.6-.7-.82-1.31-.95-1.93l2.03-.52c.1.4.3.85.53,1.1.45.47,1.07.62,1.68.62.33,0,.95-.1,1.22-.3.23-.17.35-.32.35-.57,0-.55-.67-.67-1.3-.85-1.71-.48-2-.55-2.28-.67-.52-.22-1.12-.55-1.45-.98-.32-.4-.45-1.05-.45-1.43,0-1.13.7-2.01,1.63-2.41.7-.3,1.35-.33,1.96-.33s1.3.13,1.91.45c.87.42,1.56,1.23,1.91,2.16l-2.11.53Z" fill="#f3f3f4"/><path d="M59.11,39.62l.1.08c.05.03.08.09.08.19,0,.02,0,.05-.03.08-.02.03-.03.06-.05.09-.13.25-.28.38-.45.38-.05,0-.14-.05-.26-.15-.12-.1-.19-.19-.22-.27s-.06-.13-.08-.15-.03-.04-.03-.05c0-.04.02-.08.05-.13s.05-.11.07-.18.05-.12.12-.16c.06-.03.11-.07.14-.1.03-.03.07-.05.11-.05.03,0,.06.01.09.04.03.03.07.05.12.08.05.03.11.09.16.18l.07.13Z" fill="#f3f3f4"/><path d="M61.85,39.62l.1.08c.05.03.08.09.08.19,0,.02,0,.05-.03.08-.02.03-.03.06-.05.09-.13.25-.28.38-.45.38-.05,0-.14-.05-.26-.15-.12-.1-.19-.19-.22-.27s-.06-.13-.08-.15-.03-.04-.03-.05c0-.04.02-.08.05-.13s.05-.11.07-.18.05-.12.12-.16c.06-.03.11-.07.14-.1.03-.03.07-.05.11-.05.03,0,.06.01.09.04.03.03.07.05.12.08.05.03.11.09.16.18l.07.13Z" fill="#f3f3f4"/><path d="M64.59,39.62l.1.08c.05.03.08.09.08.19,0,.02,0,.05-.03.08-.02.03-.03.06-.05.09-.13.25-.28.38-.45.38-.05,0-.14-.05-.26-.15-.12-.1-.19-.19-.22-.27s-.06-.13-.08-.15-.03-.04-.03-.05c0-.04.02-.08.05-.13s.05-.11.07-.18.05-.12.12-.16c.06-.03.11-.07.14-.1.03-.03.07-.05.11-.05.03,0,.06.01.09.04.03.03.07.05.12.08.05.03.11.09.16.18l.07.13Z" fill="#f3f3f4"/><path d="M65.82,38.05l.09-.08h.03s.06-.03.12-.08l.05-.02c.07-.11.14-.17.19-.19l.09-.07s.04-.03.06-.04.07-.05.13-.11.11-.09.14-.09.07,0,.09.01c.02-.04.07-.09.13-.13.07-.04.12-.09.16-.15l.07-.03c.06-.03.11-.07.16-.11.05-.05.1-.07.18-.07.11,0,.22.05.33.16s.17.21.17.31l-.09.43c-.06.31-.13.48-.21.49l-.02.11c-.05.04-.08.07-.08.09l.03.13s-.02.04-.06.08c0,0-.01.01-.01.03v.22s-.03.07-.08.1c0,0,.02.01.03.02.02-.02.07-.03.15-.03h.09s.12-.11.12-.11c.03,0,.06-.03.11-.05.05-.03.12-.06.23-.11l.72-.55c.1-.1.17-.15.22-.15.05,0,.08.03.08.1,0,.08-.02.15-.05.2-.03.05-.06.12-.08.19-.03.08-.06.13-.09.16s-.06.06-.08.1c-.02.03-.08.09-.18.15s-.18.13-.25.2c-.07.07-.12.12-.17.15l-.23.17-.03.05s-.04.02-.1.05c-.06.02-.11.05-.16.09l-.1.05s-.06.02-.11.03-.09.02-.13.06-.07.06-.09.06h-.08s-.11.02-.11.02c-.06,0-.14-.04-.23-.11-.09-.07-.13-.15-.13-.24v-.11s0-.05-.02-.11-.03-.09-.03-.1v-.08s0-.03,0-.03c0-.1,0-.16.02-.19s.03-.06.03-.11c0-.04.01-.08.02-.11l.03-.14s.03-.07.05-.09c0-.03.02-.08.04-.15l.02-.1.05-.08s.05-.07.05-.12.02-.1.06-.16.05-.09.05-.1c0-.04-.02-.07-.07-.07-.01,0-.06.03-.14.09l-.1-.03s-.03.02-.06.05c0,.01-.02.03-.05.03-.03,0-.06.03-.09.08h-.04s-.07-.02-.07-.02h-.02s-.06.04-.07.12c-.04.06-.09.1-.16.11l-.12.03s-.07.05-.09.1c-.02.05-.05.1-.11.14-.05.04-.09.06-.11.06-.1,0-.15-.06-.15-.17l.04-.26v-.03ZM68.18,35.32l-.03-.21v-.03c0-.17.06-.27.17-.28.03,0,.1-.03.23-.07.07.02.13.07.2.17s.11.19.11.26c0,0,0,.02-.02.05-.01.03-.02.07-.02.15,0,.07-.04.13-.11.19-.07.05-.14.08-.22.08-.05,0-.12-.03-.19-.11-.08-.07-.12-.13-.13-.19Z" fill="#f3f3f4"/><path d="M70.8,35l.08-.02.05-.05h.01l.05.02h.01c.09,0,.17-.02.23-.05s.12-.06.17-.07c.05-.01.07-.03.09-.03.01,0,.02-.01.03-.01h.09s.07-.04.12-.14.1-.18.17-.23c.06-.05.12-.14.19-.27.01-.02.03-.05.05-.08s.03-.06.04-.06c.05,0,.1-.03.13-.1.11-.13.2-.19.27-.19.09,0,.15.09.19.26l.06.21s0,.03-.03.08c-.02.05-.03.1-.03.15,0,.05,0,.08,0,.1s0,.03,0,.06c0,.03.03.04.09.04.02,0,.06-.01.12-.04h.03s.07.02.09.02c0,0,.06-.02.16-.05.1-.04.16-.06.18-.06.03,0,.07-.02.13-.04h.07l.04.02s.04-.02.09-.05c.05-.03.13-.05.26-.06l.08-.03h.02c.12,0,.18.05.18.16,0,.02-.02.06-.05.11-.03.05-.06.12-.08.19l-.25.32c-.08.11-.17.16-.25.16-.01,0-.06-.05-.14-.15,0,0,0-.01-.02-.01-.04,0-.07,0-.11.02-.04.02-.07.02-.1.02-.01,0-.11.03-.29.08l-.13.02s-.05,0-.1.02l-.28.05c-.1.05-.17.14-.22.27,0,0-.02.02-.06.05l-.25.45c-.08.02-.13.07-.16.14l-.02.03s-.08.03-.11.07-.06.07-.09.09l-.1.15c-.04.05-.08.11-.12.17-.04.06-.07.12-.09.19-.02.07-.03.11-.04.12s-.02.03-.02.06l-.02.04s-.07.09-.07.15l.02.09c-.05.17-.08.27-.08.28,0,0,0,.03.01.06v.03c0,.08-.03.18-.09.3v.09s-.02.25-.02.25c0,.03.01.09.03.18-.01.01-.02.03-.02.03,0,.1.05.21.16.34.11.12.16.31.16.57,0,.02,0,.05-.02.1-.01.04-.02.09-.02.14,0,.05-.03.1-.09.15s-.1.07-.13.07c-.19,0-.34-.14-.43-.42s-.14-.46-.14-.54v-.21s-.02-.11-.02-.11l.03-.48-.02-.11.13-.47v-.17s.03-.04.08-.09c0,0,0-.01-.02-.01-.02,0-.05.02-.09.07s-.08.09-.14.13l-.04.08s-.02-.02-.04-.02c-.02,0-.08.09-.18.26-.08.01-.14.05-.18.13s-.1.11-.18.11h-.02c-.01.12-.07.17-.15.17h-.02c-.06.13-.11.19-.17.19-.04.11-.13.18-.27.22-.02.04-.05.08-.1.1-.04.02-.07.04-.09.06-.02.02-.03.03-.05.03-.05,0-.07-.05-.07-.15,0-.03.01-.06.04-.1.02-.03.04-.06.04-.07,0,0-.02-.03-.05-.07,0-.11.03-.18.09-.21.06-.03.1-.07.13-.13.02-.04.06-.08.11-.09.05-.02.08-.04.08-.07,0-.03.05-.08.14-.15.1-.08.16-.14.21-.2s.08-.08.11-.08l.02-.02c0-.09.04-.14.1-.14l.05-.03v-.04s.04-.02.04-.02h.04l.03-.02c0-.09.05-.16.13-.21.08-.05.22-.19.43-.43.21-.23.32-.39.35-.45s.07-.15.14-.26c.07-.11.1-.22.11-.31,0-.01-.02-.03-.03-.04l-.24.11s-.04-.03-.11-.05c-.05.03-.09.07-.12.1-.03.03-.05.05-.06.05h-.08s-.24.02-.24.02c-.21.02-.38.06-.49.13l-.22.07h-.05s-.07.02-.13.05h-.13c-.12.05-.2.08-.26.08,0,0-.03,0-.07-.01l-.56.15s-.14.09-.3.22h-.04s-.08-.03-.13-.11-.07-.16-.07-.22c0-.36.31-.57.93-.63l.22-.09h.01l.06.02h.02s.06-.01.1-.04.15-.06.32-.1l.22-.06h.07s.08,0,.12-.03c.05-.03.11-.05.21-.06s.16-.03.19-.04l.09-.02s.04-.01.09-.04c.05-.03.1-.04.18-.04.01,0,.04,0,.08.02Z" fill="#f3f3f4"/><path d="M73.18,37.33l.08-.14s.05-.07.08-.1c.03-.03.07-.12.11-.27.04-.14.08-.24.13-.3.05-.05.12-.08.22-.08.05,0,.13.03.22.08.09.05.18.21.26.48.09.27.13.45.13.56,0,.04.01.1.04.17.03.07.04.12.05.16-.03.06-.04.1-.04.1v.22s-.05.18-.05.18v.13c-.04.07-.07.12-.07.14,0,.02,0,.04.02.07.17-.07.27-.13.31-.18.04-.04.07-.07.11-.08.03-.01.09-.06.17-.14l.1-.05s.07-.08.09-.12c.03-.03.06-.06.09-.07.03-.02.08-.04.12-.08.05-.04.12-.08.21-.13l.05-.07c.05-.06.12-.11.19-.15.07-.04.12-.05.12-.05.03,0,.05.03.08.1.03.07.04.13.04.2,0,.06-.04.12-.11.18s-.12.1-.14.13c-.03.03-.08.05-.17.08,0,0-.07.08-.18.22l-.11.07-.05.07s-.06.03-.15.04c0,0-.01.02-.02.05-.01.04-.05.06-.12.08-.13.12-.2.19-.2.2l-.11.02c-.02.07-.04.11-.05.13-.09.02-.14.06-.15.11-.01,0-.03.01-.05.02l-.02.02c-.08.07-.17.11-.25.12l-.13.03-.04.07s-.04.04-.13.07-.16.07-.2.11l-.09.07c-.11.04-.18.08-.21.12h-.08c-.05,0-.13.04-.24.11-.11.08-.2.11-.26.11-.21,0-.36-.03-.43-.08-.08-.05-.14-.12-.19-.2-.05-.08-.1-.14-.14-.19-.04-.05-.06-.09-.06-.11,0-.03.02-.05.05-.08.03-.03.07-.08.11-.16.04-.08.14-.13.31-.15,0,0,.03-.01.08-.03.05-.02.08-.03.11-.03.04,0,.08.03.14.1,0,0,0,.01.02.01h.09s.07.03.08.03c.09,0,.18-.04.28-.13h.02s.04-.01.04-.01c.01,0,.03-.03.05-.09l.09-.19.19-.25v-.05s.01-.04.03-.1v-.08s.02-.05.07-.06c.04,0,.07-.03.07-.07v-.04s-.05-.07-.05-.09l.05-.11v-.11s.01-.04.01-.04c-.01-.05-.02-.08-.02-.09l.02-.14s-.01-.04-.03-.1c-.02-.07-.04-.1-.05-.1-.02,0-.09.06-.21.17-.12.11-.19.19-.21.24-.02.05-.07.09-.14.13s-.12.08-.14.13c-.03.05-.06.07-.09.08l-.37.3-.4.3s-.05.05-.06.05c-.13,0-.2-.07-.2-.22,0-.05.03-.13.08-.26.03-.02.04-.03.06-.03.01,0,.02-.01.02-.02,0,0,0,0-.01,0l.03.02h.01c.13-.09.22-.14.26-.16.04-.02.08-.05.11-.12l.23-.16c.06-.04.15-.12.27-.24.12-.12.2-.2.23-.26Z" fill="#f3f3f4"/><path d="M82.26,38.53l.09-.08c.05,0,.09-.03.1-.07s.05-.09.12-.12c.07-.03.13-.09.19-.18.06-.09.12-.13.18-.13.02,0,.05.02.08.05.03.04.04.07.04.09,0,.12-.04.24-.11.37l-.02.15-.04.07c-.05.03-.09.06-.11.09s-.06.07-.13.12l-.06.08c-.08.03-.13.07-.16.13s-.07.09-.11.1-.1.04-.16.11c-.04.02-.08.03-.13.05v.05s-.1.07-.18.09c-.08.02-.14.04-.17.06-.04.02-.07.03-.08.03-.07,0-.13-.01-.19-.04-.06-.03-.12-.04-.18-.05-.02-.02-.03-.05-.04-.07,0-.03-.02-.06-.05-.1-.03-.04-.05-.1-.05-.17l.02-.1s0-.03-.03-.05-.03-.04-.03-.05,0-.03.01-.03.01-.02.01-.03c0-.02,0-.04-.01-.06s-.01-.04-.01-.05l.03-.27s0-.03-.02-.03-.04.02-.08.05c-.04.04-.08.05-.13.05-.03.02-.05.07-.07.14-.03.04-.07.07-.11.1l-.02.03s-.03.05-.08.06c-.05.02-.08.04-.1.06l-.05.05h-.1s-.03.03-.06.08c-.03.06-.07.1-.13.14l-.42.34s-.11.07-.19.11l-.03.03c-.29.19-.5.29-.62.29-.1,0-.21-.03-.34-.08s-.2-.12-.21-.2l-.05-.22c-.03-.05-.05-.12-.05-.21,0-.04,0-.07.01-.09v-.21s.02-.07.09-.07v-.15s.02-.07.08-.17c.06-.1.11-.16.13-.17l.05-.07s.02-.09.08-.14.1-.1.13-.15c.03-.05.1-.11.19-.17l.16-.16c.13-.13.27-.23.42-.31.02,0,.07-.04.13-.11.07-.07.14-.11.23-.15s.17-.07.25-.12c.08-.05.15-.07.19-.07h.04s.11-.05.29-.14h.03s.05.01.1.04h.01l.09-.04s.03-.01.05-.01c.23,0,.35.16.37.47,0,.07.03.1.05.1.04,0,.09-.07.16-.2.07-.13.21-.2.43-.2.16,0,.23.1.23.3,0,.24-.11.46-.32.67-.01.03-.03.06-.03.1l-.08.22h0s-.02.06-.05.1c-.03.04-.05.07-.05.1v.14s-.01.15-.01.15c0,.07.01.11.04.14.12-.03.2-.08.25-.15.05-.07.09-.1.11-.11l.05-.02c.03-.05.07-.1.11-.14ZM80.44,38.53c.01-.08.06-.14.13-.18.07-.04.12-.08.13-.13.07-.05.17-.14.3-.27.13-.13.19-.21.19-.24,0-.01,0-.02-.02-.02h-.01l-.04.03h-.1s-.1,0-.1,0l-.08-.04h-.07s-.11-.01-.11-.01c-.06,0-.11.01-.15.03-.04.02-.12.05-.24.08-.12.03-.22.08-.32.15-.09.07-.16.11-.21.11-.03.05-.11.13-.26.23-.09.03-.14.09-.17.19-.1.08-.14.12-.14.13l-.04.09s-.07.05-.11.06-.07.05-.08.11c0,.06-.03.11-.07.16-.04.05-.06.09-.06.12,0,.18.03.27.1.27.03,0,.09-.02.18-.06s.15-.06.16-.08c.01-.01.04-.03.09-.04l.1-.05s.03-.02.05-.03.04-.02.05-.04c.02-.02.05-.04.1-.07.05-.02.08-.05.11-.1.06-.04.16-.09.3-.17l.11-.09c.08-.04.13-.07.15-.09.02-.03.05-.05.11-.08Z" fill="#f3f3f4"/><path d="M83.43,38.64v-.04c0-.05,0-.09.01-.12-.02-.06-.03-.11-.03-.16,0,0,.02-.06.05-.15l.05-.17c.03-.07.04-.1.04-.1-.02-.06-.03-.09-.03-.1,0-.08.02-.15.07-.21.05-.05.09-.13.12-.23l.11-.33.18-.44s.02-.04.05-.09c.03-.05.06-.09.08-.12.02-.03.05-.09.08-.15h.05s.02-.04.02-.05c0,0,0-.04-.02-.09l.19-.32.11-.23c.04-.06.08-.1.12-.12.07-.13.14-.22.19-.25.02-.07.06-.14.12-.22h.1c.02-.06.04-.1.05-.13v-.11s.02.02.04-.02c.02-.03.05-.1.08-.19l.15-.17.04-.08s.05-.07.09-.15c.05-.02.1-.06.14-.12l.11-.09s.04-.13.13-.27c.06-.03.12-.06.17-.1l.08-.02c0-.13.05-.22.14-.26l.07-.04c.06-.03.09-.04.1-.04h.04s.1-.03.15-.03c.13,0,.26.05.37.15.11.1.16.21.16.34,0,.05-.03.1-.08.16l-.02.04c-.05.2-.09.3-.11.3-.01,0-.03.01-.06.03,0,.12-.01.19-.02.2-.07.01-.1.09-.1.25,0,.02-.03.06-.08.11-.05.05-.08.13-.11.22-.03.09-.05.14-.08.14h-.06l.02.08c0,.05-.02.1-.07.15s-.08.1-.09.16-.05.12-.13.2l-.05.09s-.05.08-.09.11c-.04.04-.07.1-.09.19l-.14.26c-.1.18-.17.26-.22.26-.03.14-.05.23-.07.25s-.04.04-.08.06c-.04.02-.07.05-.09.1s-.05.08-.07.1l-.1.2c-.06.03-.1.07-.13.14-.06.01-.09.06-.11.15-.01.01-.03.05-.05.1l-.19.19c-.1.07-.15.15-.16.24,0,.09-.05.13-.14.13-.06,0-.15-.03-.27-.08h-.01c-.01.05-.04.11-.08.17l.02.15s-.03.13-.09.34c.03.05.04.09.04.11v.12s.02.15.02.15c.02.12.06.18.13.18l.13.02s.05-.03.14-.08l.2-.11s.01,0,.01.01c.04.01.07.02.09.02.04,0,.05-.03.05-.09v-.07s.05-.06.08-.07c.03,0,.06-.02.08-.05s.05-.04.06-.04h.05c.05,0,.08-.06.08-.19.01,0,.03-.02.05-.04h.07s.06-.04.1-.11c.03-.07.06-.11.07-.13.07,0,.11-.02.14-.03.12-.21.21-.32.27-.32h.03c.06-.06.1-.11.1-.16,0-.04.02-.08.05-.09.03-.02.06-.03.08-.05s.04-.03.05-.03c.05,0,.08.02.08.06l-.02.15.04.16s-.02.04-.05.08c-.03.04-.05.09-.05.14,0,.1-.02.16-.05.17-.04,0-.07.03-.09.07-.02.04-.06.08-.12.11-.05.03-.1.09-.13.15l-.09.02-.05.03c-.04.11-.09.18-.14.21s-.11.1-.18.23c-.01,0-.02,0-.02.01h-.09s-.07.08-.1.09-.06.03-.08.06c-.02.03-.06.06-.12.08s-.09.05-.11.08c-.01.03-.04.05-.07.05-.03,0-.06.02-.08.04-.03.02-.05.04-.07.04,0,0-.03,0-.08-.01h-.02c-.06.04-.11.07-.15.07-.05,0-.08,0-.1.02-.02-.01-.06-.03-.1-.03s-.1-.03-.16-.05c-.06.01-.1.02-.11.02-.06,0-.14-.06-.23-.18-.09-.12-.14-.24-.14-.36,0,0-.02-.03-.06-.09-.04-.05-.06-.11-.06-.17v-.12s.01-.1.01-.1v-.03c.07,0,.09-.01.09-.02l-.07-.1ZM84.54,37.2l.11-.07c.01-.06.06-.13.14-.21s.14-.12.17-.12h.04s0-.05.02-.08c.01-.03.02-.06.02-.1,0-.02.05-.08.15-.18l.04-.1c.03-.09.11-.17.25-.23.05-.1.09-.16.11-.16h.04c.01-.07.04-.11.09-.16l.02-.03v-.09s.02-.04.07-.09.08-.1.11-.15.05-.08.09-.11c.04-.03.07-.07.08-.14h.09c0-.06,0-.09.01-.1v-.05s.09-.16.2-.34l.09-.2s.02-.05.05-.08c.03-.03.05-.08.05-.13l.04-.18c0-.08-.01-.13-.04-.13-.04.03-.07.04-.1.05-.03.01-.06.08-.09.2-.11.03-.17.08-.19.16-.02.08-.06.14-.13.2l-.04.07s-.04.08-.1.13c-.06.04-.12.12-.17.22-.18.25-.28.39-.3.4l-.05.07h-.08s.02.08.02.09c0,.02-.01.04-.03.06s-.04.04-.05.07c-.01.03-.03.06-.07.1s-.06.1-.09.19-.05.14-.07.15h-.08s-.07.05-.07.08l.02.08s0,.03-.03.05-.04.06-.06.12c-.02.06-.06.15-.14.27s-.13.24-.17.38c-.04.13-.08.22-.12.25,0,0,.02.01.03.01.05,0,.09-.05.14-.15Z" fill="#f3f3f4"/><path d="M86.4,38.64v-.04c0-.05,0-.09.01-.12-.02-.06-.03-.11-.03-.16,0,0,.02-.06.05-.15l.05-.17c.03-.07.04-.1.04-.1-.02-.06-.03-.09-.03-.1,0-.08.02-.15.07-.21.05-.05.09-.13.12-.23l.11-.33.18-.44s.02-.04.05-.09c.03-.05.06-.09.08-.12.02-.03.05-.09.08-.15h.05s.02-.04.02-.05c0,0,0-.04-.02-.09l.19-.32.11-.23c.04-.06.08-.1.12-.12.07-.13.14-.22.19-.25.02-.07.06-.14.12-.22h.1c.02-.06.04-.1.05-.13v-.11s.02.02.04-.02c.02-.03.05-.1.08-.19l.15-.17.04-.08s.05-.07.09-.15c.05-.02.1-.06.14-.12l.11-.09s.04-.13.13-.27c.06-.03.12-.06.17-.1l.08-.02c0-.13.05-.22.14-.26l.07-.04c.06-.03.09-.04.1-.04h.04s.1-.03.15-.03c.13,0,.26.05.37.15.11.1.16.21.16.34,0,.05-.03.1-.08.16l-.02.04c-.05.2-.09.3-.11.3-.01,0-.03.01-.06.03,0,.12-.01.19-.02.2-.07.01-.1.09-.1.25,0,.02-.03.06-.08.11-.05.05-.08.13-.11.22-.03.09-.05.14-.08.14h-.06l.02.08c0,.05-.02.1-.07.15s-.08.1-.09.16-.05.12-.13.2l-.05.09s-.05.08-.09.11c-.04.04-.07.1-.09.19l-.14.26c-.1.18-.17.26-.22.26-.03.14-.05.23-.07.25s-.04.04-.08.06c-.04.02-.07.05-.09.1s-.05.08-.07.1l-.1.2c-.06.03-.1.07-.13.14-.06.01-.09.06-.11.15-.01.01-.03.05-.05.1l-.19.19c-.1.07-.15.15-.16.24,0,.09-.05.13-.14.13-.06,0-.15-.03-.27-.08h-.01c-.01.05-.04.11-.08.17l.02.15s-.03.13-.09.34c.03.05.04.09.04.11v.12s.02.15.02.15c.02.12.06.18.13.18l.13.02s.05-.03.14-.08l.2-.11s.01,0,.01.01c.04.01.07.02.09.02.04,0,.05-.03.05-.09v-.07s.05-.06.08-.07c.03,0,.06-.02.08-.05s.05-.04.06-.04h.05c.05,0,.08-.06.08-.19.01,0,.03-.02.05-.04h.07s.06-.04.1-.11c.03-.07.06-.11.07-.13.07,0,.11-.02.14-.03.12-.21.21-.32.27-.32h.03c.06-.06.1-.11.1-.16,0-.04.02-.08.05-.09.03-.02.06-.03.08-.05s.04-.03.05-.03c.05,0,.08.02.08.06l-.02.15.04.16s-.02.04-.05.08c-.03.04-.05.09-.05.14,0,.1-.02.16-.05.17-.04,0-.07.03-.09.07-.02.04-.06.08-.12.11-.05.03-.1.09-.13.15l-.09.02-.05.03c-.04.11-.09.18-.14.21s-.11.1-.18.23c-.01,0-.02,0-.02.01h-.09s-.07.08-.1.09-.06.03-.08.06c-.02.03-.06.06-.12.08s-.09.05-.11.08c-.01.03-.04.05-.07.05-.03,0-.06.02-.08.04-.03.02-.05.04-.07.04,0,0-.03,0-.08-.01h-.02c-.06.04-.11.07-.15.07-.05,0-.08,0-.1.02-.02-.01-.06-.03-.1-.03s-.1-.03-.16-.05c-.06.01-.1.02-.11.02-.06,0-.14-.06-.23-.18-.09-.12-.14-.24-.14-.36,0,0-.02-.03-.06-.09-.04-.05-.06-.11-.06-.17v-.12s.01-.1.01-.1v-.03c.07,0,.09-.01.09-.02l-.07-.1ZM87.51,37.2l.11-.07c.01-.06.06-.13.14-.21s.14-.12.17-.12h.04s0-.05.02-.08c.01-.03.02-.06.02-.1,0-.02.05-.08.15-.18l.04-.1c.03-.09.11-.17.25-.23.05-.1.09-.16.11-.16h.04c.01-.07.04-.11.09-.16l.02-.03v-.09s.02-.04.07-.09.08-.1.11-.15.05-.08.09-.11c.04-.03.07-.07.08-.14h.09c0-.06,0-.09.01-.1v-.05s.09-.16.2-.34l.09-.2s.02-.05.05-.08c.03-.03.05-.08.05-.13l.04-.18c0-.08-.01-.13-.04-.13-.04.03-.07.04-.1.05-.03.01-.06.08-.09.2-.11.03-.17.08-.19.16-.02.08-.06.14-.13.2l-.04.07s-.04.08-.1.13c-.06.04-.12.12-.17.22-.18.25-.28.39-.3.4l-.05.07h-.08s.02.08.02.09c0,.02-.01.04-.03.06s-.04.04-.05.07c-.01.03-.03.06-.07.1s-.06.1-.09.19-.05.14-.07.15h-.08s-.07.05-.07.08l.02.08s0,.03-.03.05-.04.06-.06.12c-.02.06-.06.15-.14.27s-.13.24-.17.38c-.04.13-.08.22-.12.25,0,0,.02.01.03.01.05,0,.09-.05.14-.15Z" fill="#f3f3f4"/><path d="M91.6,38.05l.09-.08h.03s.06-.03.12-.08l.05-.02c.07-.11.14-.17.19-.19l.09-.07s.04-.03.06-.04.07-.05.13-.11.11-.09.14-.09.07,0,.09.01c.02-.04.07-.09.13-.13.07-.04.12-.09.16-.15l.07-.03c.06-.03.11-.07.16-.11.05-.05.1-.07.18-.07.11,0,.22.05.33.16s.17.21.17.31l-.09.43c-.06.31-.13.48-.21.49l-.02.11c-.05.04-.08.07-.08.09l.03.13s-.02.04-.06.08c0,0-.01.01-.01.03v.22s-.03.07-.08.1c0,0,.02.01.03.02.02-.02.07-.03.15-.03h.09s.12-.11.12-.11c.03,0,.06-.03.11-.05.05-.03.12-.06.23-.11l.72-.55c.1-.1.17-.15.22-.15.05,0,.08.03.08.1,0,.08-.02.15-.05.2-.03.05-.06.12-.08.19-.03.08-.06.13-.09.16s-.06.06-.08.1c-.02.03-.08.09-.18.15s-.18.13-.25.2c-.07.07-.12.12-.17.15l-.23.17-.03.05s-.04.02-.1.05c-.06.02-.11.05-.16.09l-.1.05s-.06.02-.11.03-.09.02-.13.06-.07.06-.09.06h-.08s-.11.02-.11.02c-.06,0-.14-.04-.23-.11-.09-.07-.13-.15-.13-.24v-.11s0-.05-.02-.11-.03-.09-.03-.1v-.08s0-.03,0-.03c0-.1,0-.16.02-.19s.03-.06.03-.11c0-.04.01-.08.02-.11l.03-.14s.03-.07.05-.09c0-.03.02-.08.04-.15l.02-.1.05-.08s.05-.07.05-.12.02-.1.06-.16.05-.09.05-.1c0-.04-.02-.07-.07-.07-.01,0-.06.03-.14.09l-.1-.03s-.03.02-.06.05c0,.01-.02.03-.05.03-.03,0-.06.03-.09.08h-.04s-.07-.02-.07-.02h-.02s-.06.04-.07.12c-.04.06-.09.1-.16.11l-.12.03s-.07.05-.09.1c-.02.05-.05.1-.11.14-.05.04-.09.06-.11.06-.1,0-.15-.06-.15-.17l.04-.26v-.03ZM93.96,35.32l-.03-.21v-.03c0-.17.06-.27.17-.28.03,0,.1-.03.23-.07.07.02.13.07.2.17s.11.19.11.26c0,0,0,.02-.02.05-.01.03-.02.07-.02.15,0,.07-.04.13-.11.19-.07.05-.14.08-.22.08-.05,0-.12-.03-.19-.11-.08-.07-.12-.13-.13-.19Z" fill="#f3f3f4"/><path d="M99.8,38.87h.02l.05.02s.02,0,.02-.01c0-.06.03-.11.09-.16.02-.07.06-.12.12-.16.06-.04.16-.1.3-.18l.14-.12.07-.03.04-.05s.08-.07.11-.07c.05,0,.08.02.08.06l-.05.11.02.18c0,.07-.02.12-.07.17-.05.05-.12.13-.21.22l-.28.3-.15.08s-.07.05-.1.08l-.21.18c0,.05-.02.09-.05.11h-.09l-.04.02c-.03.07-.1.14-.22.2l-.08.05s-.05.03-.07.03l-.15-.02-.1.02s-.07-.01-.12-.04-.1-.05-.15-.07-.12-.08-.19-.2c-.08-.12-.12-.2-.13-.23,0-.01,0-.04-.02-.07-.02-.03-.02-.05-.02-.06s.02-.04.05-.11h0s0-.05-.03-.09-.03-.09-.03-.15c0-.03-.01-.07-.03-.13.03-.03.04-.05.04-.07,0-.02,0-.04-.02-.06s-.02-.05-.02-.06l.03-.27-.02-.14v-.13c.01-.08-.02-.11-.09-.11-.03,0-.07.02-.11.06h-.04c-.1.06-.17.1-.21.13-.04.03-.08.05-.13.05-.02.02-.06.04-.13.06l-.04.03s-.04.04-.09.07c0,.01-.07.07-.2.18-.14.11-.26.22-.37.31-.11.1-.19.15-.24.16-.05,0-.07.06-.07.14,0,.01-.03.04-.1.09,0,0-.05.04-.11.12-.06-.04-.09-.07-.1-.07-.05,0-.08.06-.1.18-.02.05-.08.08-.18.09,0,0-.02.03-.04.08l-.02.02h-.05s-.03.02-.08.06c-.04.04-.08.07-.11.08-.05.1-.09.15-.12.15-.01,0-.04,0-.06-.02s-.06-.03-.1-.04c-.04-.01-.08-.06-.13-.13-.05-.08-.07-.14-.07-.2,0-.4.08-.63.23-.66v-.02s.01-.04.01-.04c0-.05.02-.08.06-.1.04-.02.08-.06.13-.12s.07-.09.09-.1h.07s.02-.04.02-.11c0-.02,0-.04.03-.06.02-.02.03-.04.03-.08,0-.03.03-.09.08-.17.05-.08.07-.12.07-.14v-.02c-.1.08-.17.13-.21.14-.04,0-.1.06-.16.16l-.09-.02c-.15.11-.25.18-.28.19-.04.01-.08.06-.12.13,0,.02-.01.04-.04.04-.03,0-.07.04-.14.09h-.03c-.09,0-.14-.07-.14-.2l.11-.31c.03-.1.11-.18.23-.25.12-.07.23-.13.31-.19.08-.06.17-.1.25-.1l.04-.05c.12-.05.21-.12.25-.22.04-.1.1-.15.18-.15.2,0,.35.07.46.22.11.15.16.27.16.35v.15c.01.05,0,.12-.02.21-.04.07-.07.11-.07.15,0,.03.02.04.05.04.02,0,.05-.02.09-.05.04-.03.08-.06.12-.08.05-.03.07-.05.08-.07.04-.09.1-.15.19-.18.09-.03.15-.06.17-.08l.05-.04.04-.08c.1-.04.16-.08.2-.12.03-.04.08-.06.13-.07s.12-.04.19-.1l.08-.02.08-.04s.03-.02.07-.03c.04-.01.09-.03.16-.06s.12-.04.14-.04c.19,0,.33.07.44.22.11.15.16.27.16.36v.1s.01.15.01.15v.02l-.04.3v.1c.01.17-.03.29-.1.36-.02,0-.03.03-.03.05v.05l.11.23c.03.08.06.12.08.12l.18-.05c.05-.01.09-.05.13-.11.03-.01.08-.06.15-.13.02-.06.06-.09.1-.09Z" fill="#f3f3f4"/><path d="M107.69,38.62v.1s.01.02.01.02c0,0,0,.05-.02.13-.05.06-.09.14-.09.25l-.07.1c0,.05-.02.09-.05.12s-.06.09-.09.17c-.03.09-.06.18-.09.28l-.13.31s0,.02.02.02c0,0,.02,0,.03-.01.02,0,.03-.01.05-.01s.03,0,.04.01.03.01.03.01.03-.01.08-.04.1-.04.16-.05l.2-.05s.13-.02.27-.02h.17c.13-.01.27.02.41.09.14.07.22.14.26.22s.05.2.05.37c0,.13-.05.2-.14.2-.05,0-.12-.03-.21-.1-.09-.07-.15-.16-.18-.26s-.09-.16-.16-.16l-.14-.04-.08.02h-.02s-.05-.01-.1-.03h-.02l-.16.04h-.22l-.1.05c-.05.01-.11.03-.17.03s-.11.02-.16.04c-.05.02-.07.04-.07.06,0,.11-.05.21-.15.29-.04.06-.06.1-.06.14,0,.03-.03.07-.06.11-.04.04-.08.11-.12.19l-.04.08s-.02.04-.02.05c0,0,0,.02.01.04v.05c0,.1-.06.2-.18.29v.05s-.03.07-.09.13l.02.11s-.02.04-.06.09c-.04.04-.07.1-.1.15-.03.06-.08.11-.16.15v.03l.03.07s.02,0,.02.02c0,.03-.03.06-.08.11-.01.06-.04.11-.08.17l-.22.3c-.04.05-.05.09-.05.12l-.04.1s-.07.07-.08.1-.06.1-.15.2c-.08.1-.13.15-.16.15.02.04.03.07.03.08,0,.04-.03.1-.09.16-.1,0-.14.02-.14.06l.03.11s-.02.04-.06.07c-.04.03-.07.04-.1.04h-.08l.02.1s-.04.07-.07.08c-.03.01-.08.06-.15.13s-.12.11-.14.13l-.07.04-.21.02c-.06-.02-.17-.08-.34-.18-.17-.1-.26-.2-.28-.29s-.04-.22-.04-.38c0-.02.02-.05.05-.09v-.04s.01-.1.01-.1c0,0,.02-.07.05-.19s.07-.19.09-.2c.03-.01.07-.09.12-.22s.1-.22.13-.26l.5-.74s0-.08.02-.09h.03s.05,0,.06-.03c.01-.02.03-.04.05-.07,0-.07.03-.13.1-.17.06-.04.11-.09.14-.14.03-.05.06-.1.1-.15v-.03s.06-.03.11-.05c.05-.02.08-.05.09-.09l.19-.18s.05-.03.09-.05c.04-.02.08-.06.13-.12l.04-.02h.05c.04-.11.09-.16.13-.16.04,0,.08-.02.09-.03,0-.11.06-.17.19-.17.03,0,.05,0,.07-.02l.13-.1s.05-.09.1-.21h0s.1.02.1.02v-.03s-.01-.12-.01-.12c.01-.01.03-.06.07-.15.03-.09.06-.14.09-.15.03-.01.04-.03.04-.05v-.13s.01-.04.01-.04v-.09s.05-.09.08-.2c.01-.01.03-.03.06-.04l.25-.69s.02-.07.03-.14l.04-.06c.04-.12.07-.19.07-.22,0-.02,0-.02-.02-.02-.02,0-.05.02-.1.06-.05.04-.09.06-.12.06l-.09-.02h-.02s-.05.02-.09.05c-.04.04-.06.05-.07.05h-.07c-.04.07-.07.11-.1.11l-.14.09h-.01l-.08-.05s0-.01-.03-.01c-.01,0-.04.04-.07.13l-.17.08s-.06-.01-.07-.01c-.04,0-.07.03-.1.1-.03.07-.08.1-.13.11-.03.03-.1.06-.2.08l-.32.22s-.06.03-.08.05c-.08,0-.15.05-.21.13h-.15s-.07.01-.11.06-.07.07-.11.07h-.1s-.18.03-.18.03c-.05,0-.13-.04-.24-.12-.11-.08-.16-.15-.16-.2l-.03-.25s.02-.03.04-.08c.03-.04.04-.07.04-.09,0,0,0-.02-.01-.04v-.04c0-.13.05-.28.14-.46v-.02s-.01-.02-.03-.02c-.05,0-.09.04-.12.12-.03.08-.07.13-.11.17s-.07.06-.1.08c-.02.02-.04.03-.05.03-.02-.02-.05-.03-.08-.03,0,0-.02-.03-.04-.07-.02-.04-.05-.07-.08-.09-.04-.02-.06-.06-.06-.12,0-.04.05-.09.16-.16l.07-.07c.17-.17.28-.26.34-.27l.03-.08c.05-.04.11-.1.19-.17s.14-.12.2-.15l.3-.26c.09-.08.21-.12.36-.12.12,0,.17.07.17.22s-.03.26-.08.35c-.05.08-.09.16-.1.22-.01.07-.06.16-.15.27-.08.11-.13.19-.15.25-.02.05-.05.13-.11.22s-.09.18-.09.25c0,.04.02.05.07.05.06,0,.14-.03.24-.1l.05-.02s.07-.03.11-.05l.14-.06c.03-.05.07-.09.12-.11l.1-.05c.05-.02.11-.05.19-.09.07-.03.12-.07.14-.1s.05-.06.09-.08c.03-.02.07-.05.12-.1.09,0,.23-.08.39-.25.17-.1.32-.2.47-.29.15-.1.24-.17.29-.21.02-.02.06-.03.12-.06.06-.03.12-.07.19-.12.07-.06.16-.08.27-.08.09,0,.19.03.27.11s.13.14.13.21v.26c-.01.17-.06.31-.15.43-.02.15-.05.25-.08.3v.13s-.03.06-.11.11ZM105.1,42.8l.03-.08s.03-.05.08-.08c.04-.16.09-.26.15-.31,0-.08,0-.13.01-.14l.08-.07.21-.36c.02-.05.04-.1.07-.14.03-.05.05-.09.06-.13,0-.05.06-.15.18-.3v-.04c0-.05-.01-.08-.03-.08-.02.03-.06.05-.11.08l-.35.3s-.07.07-.15.17l-.1.11c-.06.06-.1.1-.13.12s-.07.07-.11.16c-.05.09-.08.13-.12.13h-.02s-.02,0-.05-.03c-.02.01-.03.03-.03.05l.03.13s-.02.04-.04.07c-.03.03-.05.06-.07.1-.02.04-.04.06-.06.07-.02,0-.06.08-.12.2l-.1.05c-.01.22-.08.39-.2.52-.03.06-.05.12-.07.17-.02.06-.03.09-.05.11-.02.14-.06.21-.11.23-.02,0-.02.02-.02.03,0,.02.02.04.05.07l.02.02c-.05.14-.07.25-.07.32,0,.01,0,.02.02.02l.16-.08c.12-.06.19-.12.23-.21l.09-.17s.04-.04.08-.04c.02-.08.06-.13.11-.15s.07-.05.07-.09.07-.16.2-.38c.14-.21.21-.34.22-.37Z" fill="#f3f3f4"/><path d="M111.56,39.37l-.26.22s-.03-.02-.04-.02c-.04,0-.08.03-.14.1-.05.07-.09.1-.11.1h-.05c-.09.06-.16.1-.2.11-.04.01-.09.03-.14.06-.06.03-.11.05-.15.05-.04,0-.08.02-.11.05-.03.03-.1.04-.21.04h-.09s-.08.02-.09.02c-.03,0-.06-.02-.09-.05-.03-.03-.07-.05-.11-.05-.04,0-.08-.03-.12-.08-.04-.05-.08-.08-.11-.1-.03-.02-.06-.04-.09-.08l-.08-.07c-.06-.04-.12-.12-.18-.24-.06-.12-.09-.21-.09-.27v-.13s0-.12,0-.12c.02-.01.03-.05.05-.09v-.17l.13-.44s0-.04-.04-.07c-.03.05-.07.09-.11.1-.04.01-.06.04-.07.08-.01.04-.03.06-.06.06l-.07-.02s-.02.04-.05.11c-.03.07-.07.1-.13.1-.07,0-.1-.03-.1-.08v-.1s-.02-.14-.02-.14c0-.03.03-.09.09-.17.06-.09.11-.13.16-.15.05-.01.09-.05.13-.1.03-.06.11-.12.23-.2.07-.02.12-.06.17-.14.05-.04.12-.07.2-.1.08-.03.14-.06.19-.11.04-.05.17-.13.37-.23s.36-.16.45-.16c.03,0,.07,0,.12-.03.05-.02.1-.03.14-.04s.09-.03.14-.06.09-.04.12-.04l.16.05c.12.03.19.06.21.07,0,0,.04.02.11.05.07.02.14.06.21.1.07.04.11.11.11.22-.06.09-.09.14-.09.15,0,.01.04.04.12.07.03.05.07.13.13.21l.06.19v.45s0,.04,0,.04c-.04.04-.06.06-.06.07l.02.11-.04.15s-.03.08-.05.09-.04.03-.05.05l-.03.04s-.02.04-.05.1c-.02.05-.05.09-.08.12-.03.03-.05.06-.05.1,0,.04-.03.07-.05.09-.03.02-.05.04-.06.06-.01.02-.03.04-.06.05ZM109.86,39.51l.02.13h.01s.09.01.09.01h.03c.07.03.13.03.16.03.11,0,.2-.03.27-.09.07-.06.12-.08.16-.08.04,0,.07-.03.1-.08.03-.05.04-.08.05-.08h.1c0-.1.04-.16.11-.19s.13-.09.16-.15.07-.1.11-.14c.04-.03.07-.07.08-.12l.04-.07s.02-.04.02-.08l.1-.2c.02-.09.03-.16.03-.21,0-.08-.04-.14-.12-.18-.08-.04-.12-.13-.12-.26,0-.08.04-.16.13-.23.09-.07.13-.11.13-.13,0-.02-.01-.03-.03-.03-.01,0-.05.01-.12.04-.03.05-.16.12-.39.2-.08-.04-.12-.05-.13-.05-.02,0-.04.02-.07.07s-.04.07-.07.09h-.07s-.03.02-.07.07c-.04.05-.09.07-.15.07l-.07.07c0,.06-.03.12-.11.18l-.06.07s-.08.09-.14.15l-.1.25c-.04.09-.06.17-.06.21-.01.02-.03.04-.07.07-.04.02-.06.05-.06.09,0,0,.01.03.04.05.03.03.04.05.04.07l-.02.07-.02.2.05.17Z" fill="#f3f3f4"/><path d="M113.19,37.73l.08.03c0-.06.04-.11.1-.16h.04s.08-.05.14-.15l.09-.05s.04.01.07.01c.02,0,.04-.02.06-.04.02-.03.07-.09.15-.17h.02s.05-.02.08-.05.07-.05.12-.05l.19-.05c.06-.02.09-.02.1-.02.03-.01.11.05.24.2s.19.28.19.42c0,.08-.04.12-.12.14l-.03.02v.11l-.09.2c-.03.05-.06.09-.09.1-.03.06-.06.1-.07.12h-.08s-.03.04-.03.04v.14s-.08.14-.14.29c-.06.15-.09.24-.09.28,0,.07.01.1.04.1.02,0,.04,0,.07-.03s.05-.04.09-.06c.04-.02.07-.05.08-.07s.06-.05.11-.07c.06-.02.11-.06.16-.11.05-.05.09-.09.11-.11s.05-.04.07-.07c.03-.03.04-.05.05-.05.02,0,.06,0,.1-.02,0-.04.02-.07.02-.09l.13-.07.32-.28.04-.05c.06-.02.1-.03.11-.03.03-.1.08-.17.15-.21,0-.02.02-.03.05-.03.03-.06.07-.1.11-.14.04-.03.08-.08.11-.13l.13-.1s.06-.04.08-.07c.19-.17.31-.26.35-.29.05-.02.12-.03.22-.03s.18.04.25.12c.06.08.13.14.21.18.08.04.11.12.11.23,0,.1-.08.31-.25.61-.1.31-.16.5-.16.58,0,.07-.02.11-.05.12-.03.01-.04.02-.04.04v.02c0,.09.01.13.04.13.02,0,.05-.02.09-.05s.12-.08.23-.12h.05c.11-.15.18-.24.21-.25.03-.01.07-.04.11-.1.04-.05.08-.08.13-.08.05,0,.09-.01.1-.03,0-.09.07-.19.21-.3s.22-.16.24-.16c.04,0,.07.03.09.08s.04.09.07.11c.02.02.03.04.03.05v.1s-.02.08-.07.09c-.04.08-.07.13-.1.14h-.1s-.03.03-.05.05c-.01.02-.02.03-.03.02-.03,0-.08.06-.16.14-.07.09-.14.16-.2.22l-.02.03s-.06.04-.08.04l-.1.08s-.06-.03-.07-.03-.02.01-.05.04c-.02.03-.07.07-.14.11-.07.05-.12.1-.16.16l-.09.09-.11.02s-.03.02-.05.05l-.1.13c-.05.06-.12.09-.22.09-.02,0-.05-.02-.09-.06-.03-.04-.07-.07-.1-.1-.03-.03-.1-.11-.21-.25-.11-.14-.16-.21-.16-.22l.03-.19v-.13s0-.06.04-.12c.03-.05.05-.08.05-.08v-.21s0-.02.01-.03l.08-.13s-.01-.08-.01-.12l.02-.18c-.07.03-.12.09-.17.18-.05.09-.11.13-.19.13-.07.12-.12.18-.16.18-.01.01-.03.03-.03.04l-.08.04h-.09s-.03.13-.03.13c-.08.04-.13.08-.16.12-.02.03-.06.07-.11.11l-.09.09h-.09c-.01.1-.07.18-.17.25l-.04.05h-.1c-.04.11-.08.18-.14.2-.06,0-.15.06-.25.17s-.18.17-.23.17c-.32,0-.57-.2-.77-.6,0-.01-.03-.04-.05-.08-.03-.04-.04-.1-.04-.19,0-.14.02-.24.06-.29s.09-.15.15-.29c.06-.14.1-.2.13-.18,0-.02.01-.04.01-.07.06-.07.09-.12.09-.16,0-.02,0-.02-.02-.02,0,0-.03.01-.07.03l-.08.03s-.06.02-.07.04c-.01.02-.04.04-.08.06-.04.02-.07.04-.09.05h-.02s-.04-.03-.04-.03c-.02.06-.04.09-.05.11h-.07c-.08.09-.13.14-.15.14-.02,0-.05-.01-.1-.04-.05-.03-.08-.05-.08-.08l.04-.21v-.1s.01-.02.04-.04c0,0,.04-.04.09-.12.05-.08.11-.12.18-.12Z" fill="#f3f3f4"/><path d="M119.28,37.29l.08-.02.03-.07c.18-.11.31-.21.38-.3,0-.02.02-.03.05-.04.03-.02.05-.04.08-.08.13-.14.3-.2.48-.2.22,0,.34.13.35.4l.03.08c.03.05.07.15.12.31.05.16.08.25.08.29,0,.1-.03.2-.09.3-.05.03-.17.16-.37.41l-.05.04c-.03.07-.07.13-.11.2-.07.03-.11.05-.11.08v.1s0,.02-.03.04c-.02.02-.04.06-.07.13l-.04.07s-.03.04-.04.09c-.02.05-.03.09-.06.12-.03.04-.04.07-.04.09,0,.05.07.08.21.08,0,0,.03-.01.08-.03l.08.02s.03-.01.05-.04c.03-.02.07-.04.13-.06.06-.01.11-.04.16-.07s.1-.05.16-.08.12-.06.18-.11c.06-.05.12-.08.17-.11.06-.02.11-.06.16-.1.05-.04.1-.09.17-.13s.16-.13.3-.26c.09-.07.15-.11.18-.11,0,0,.04-.05.1-.15.06-.1.12-.14.19-.14s.11.04.11.11c0,.04-.02.08-.05.11v.12s.02.03.02.05c0,.01-.01.04-.04.07-.03.03-.05.07-.06.11-.01.05-.05.08-.1.09-.02.08-.05.13-.08.14-.03.01-.08.05-.15.11s-.15.13-.26.22-.19.15-.23.19c-.04.05-.07.07-.08.07,0,0-.02,0-.04-.02s-.04-.02-.04-.02c-.02,0-.04.03-.04.08l-.02.05s-.07.04-.08.04h-.03s-.02-.01-.02-.01c-.04,0-.07.02-.07.05l.03.05h0c0,.06-.03.09-.09.09-.04,0-.16.07-.35.2l-.16.03-.13.07s-.07-.04-.08-.04l-.09.03h-.16s-.07-.03-.2-.1c-.13-.07-.21-.15-.23-.22-.03-.07-.06-.15-.1-.22-.04-.07-.06-.13-.06-.16,0-.17.01-.3.04-.37.03-.07.05-.13.05-.17s.03-.08.06-.12c.03-.04.06-.11.09-.2.11-.21.18-.34.22-.39.04-.05.07-.11.09-.17l.07-.1s.02-.04.03-.09c.02-.05.03-.08.05-.08.03-.05.04-.08.04-.1,0-.11-.05-.16-.14-.16-.02,0-.04.02-.06.06s-.07.08-.15.11c-.08.04-.13.06-.15.08-.02.02-.06.04-.12.07-.06.03-.11.07-.16.13l-.09.04c-.03.07-.05.11-.08.11-.02,0-.09.03-.2.05,0,0-.03.03-.05.07-.03.04-.07.06-.13.06-.04.04-.09.09-.13.15-.02,0-.05.01-.12.04l-.11.03s-.06.06-.1.1c-.03.05-.1.07-.19.07-.05,0-.08-.04-.08-.13,0-.18.06-.32.19-.43.13-.11.22-.16.28-.17.06,0,.09-.03.11-.07.01-.04.05-.07.11-.09.06-.02.12-.08.2-.16.08-.08.16-.14.24-.17l.07-.08Z" fill="#f3f3f4"/><path d="M125.22,37.95l.04-.06c.1-.02.16-.06.18-.11.01-.03.1-.12.28-.28.17-.16.27-.25.29-.26.12-.21.19-.37.21-.48.04-.02.06-.05.06-.08l.04-.09h.05s.02-.03.02-.03v-.05c0-.07.07-.22.21-.46.14-.3.22-.46.23-.49s.03-.08.07-.14.08-.18.15-.35c.07-.17.17-.35.31-.54.01,0,.04-.05.07-.12.03-.08.07-.15.14-.22l.07-.11s.06-.1.11-.19c.05-.09.1-.16.15-.22.05-.05.08-.11.1-.17.02-.06.05-.1.08-.13s.07-.07.1-.14c.03-.07.09-.1.16-.1.14,0,.24.06.31.17.06.12.1.22.1.31,0,.01-.02.09-.07.23l-.08.49c-.07.04-.11.08-.11.13,0,.19-.07.39-.22.6-.01.02-.03.06-.04.14,0,.08-.04.15-.1.2-.05.05-.1.14-.15.26l-.51.73-.04.04s-.05.05-.08.09l-.09-.03c-.1,0-.15.03-.15.09,0,.02,0,.05.02.09h0s-.14.21-.4.58c-.02.02-.04.09-.08.21l-.08.16c-.08.1-.13.21-.16.31-.03.1-.07.18-.12.24-.07.16-.11.25-.11.26,0,.02.01.03.03.03s.07-.05.16-.16c.08-.11.15-.18.2-.22.05-.04.1-.09.13-.15l.05-.04s.05-.03.09-.07h.06s.05-.04.05-.07c0-.03.02-.05.03-.07.09-.01.15-.05.18-.1.02-.06.05-.09.09-.09.03,0,.07-.03.11-.1s.11-.12.2-.16.15-.08.19-.11c.04-.03.13-.07.25-.12s.21-.07.26-.07h.08s.08,0,.08,0c.13,0,.25.03.38.11s.18.18.16.33l-.04.34-.06.27s-.04.14-.09.29c-.05.15-.08.23-.08.26l-.02.1.02.14v.11s0,.05.04.05c.02,0,.05-.03.12-.1.04,0,.08-.01.11-.07.04-.05.09-.1.15-.16,0-.02.02-.03.07-.04.05-.01.11-.06.2-.13.01-.03.09-.1.21-.21.13-.11.25-.19.36-.25l.03-.04c.06-.06.12-.09.17-.09s.08.03.08.08c0,.04,0,.07-.03.11-.02.04-.03.09-.04.16,0,.06-.04.16-.11.28l-.02.05c-.03.06-.06.1-.09.11s-.08.04-.12.09-.13.1-.26.14c-.06.11-.1.16-.14.16l-.1-.04c-.08.06-.11.13-.11.19-.1.08-.15.13-.17.16h-.11s-.04.03-.04.11c0,0-.04.03-.11.07-.07.04-.13.08-.17.11-.04.03-.12.05-.26.05-.02,0-.04-.01-.07-.04s-.07-.05-.13-.07c-.06-.02-.1-.06-.12-.13-.02-.07-.04-.12-.07-.16-.03-.04-.04-.07-.04-.09v-.11s-.02-.11-.02-.11l.05-.08c-.02-.05-.03-.09-.03-.1l.05-.33c.04-.24.07-.4.1-.47,0,0,.01-.03.01-.07v-.14s0-.08,0-.08c0-.05-.02-.08-.05-.09-.04,0-.06-.01-.07-.03-.05-.02-.08-.03-.08-.03-.03,0-.05.02-.08.07s-.05.09-.09.12l-.14-.02h0s-.05.1-.15.18c-.09.02-.17.07-.24.14-.03,0-.08.03-.15.08-.07.06-.12.09-.14.1l-.04.09-.09.03c-.03.07-.09.12-.18.14l-.05.1c-.08,0-.13.05-.16.12-.03.07-.05.11-.07.11,0,0-.02,0-.03-.01-.02,0-.03-.01-.05-.01-.08,0-.12.06-.13.18,0,.01-.07.1-.22.26s-.23.24-.24.24-.03.04-.06.11-.07.12-.13.16c-.05.03-.1.06-.12.09s-.05.03-.06.03c-.08,0-.14-.05-.19-.16s-.07-.17-.07-.17l.03-.11v-.1s.01-.08.06-.22c.05-.14.1-.26.16-.34.06-.08.1-.22.14-.4-.16.11-.26.16-.3.16-.07,0-.11-.05-.11-.14,0-.17.06-.33.17-.47Z" fill="#f3f3f4"/><path d="M130.73,37.72l.11-.09c.09,0,.14-.05.14-.14,0-.08.07-.16.18-.22l.07-.09c.05-.05.2-.13.45-.21.06-.04.1-.07.13-.1,0,0,.01-.01.02-.01l.09.02s.11-.01.18-.04c.08-.03.15-.04.22-.04h.23s.04,0,.09.02c.04.02.1.03.17.03.08,0,.15.04.22.11.07.07.1.14.1.2,0,.11-.06.23-.17.34s-.21.18-.28.2c-.06.06-.11.1-.14.12s-.07.04-.1.08c-.03.03-.06.05-.09.05-.01,0-.03,0-.03-.01,0,0-.02-.01-.03-.01-.06,0-.12.07-.19.21h-.1c-.06.03-.1.07-.12.12-.02.05-.06.07-.11.07-.14.13-.23.2-.27.2,0,0-.03,0-.08-.02-.03.04-.04.07-.04.11,0,.04-.03.07-.09.08l-.07.07h-.05s-.11.1-.11.1c-.05,0-.11.02-.17.05,0,.04-.02.1-.03.17-.01.07-.02.1-.02.11,0,.11.1.16.29.16l.26-.04c.07,0,.13-.02.19-.05.06-.04.12-.05.19-.05.02,0,.05,0,.1-.02l.05.02c.03-.05.07-.1.14-.15s.12-.07.16-.07l.05-.03s.04-.07.07-.09l.04-.04s.06-.04.08-.04h.1c.04-.11.1-.16.18-.18s.13-.04.15-.08c.02-.04.06-.06.11-.07.05,0,.09-.03.13-.07.03-.04.08-.08.13-.12.05-.04.09-.06.11-.08.02-.02.04-.03.05-.03.02,0,.03.02.03.05s0,.05.02.05c.02,0,.02,0,.02-.02,0-.02,0-.03-.01-.05v-.04c0-.05.03-.09.09-.11l.25-.16c0-.08.03-.12.06-.13.03-.01.06-.03.08-.04.02-.02.04-.02.06-.02.05,0,.07.03.07.08l-.03.14.03.15s-.02.05-.05.09-.06.1-.08.17c-.02.08-.04.12-.07.13h-.03c-.07.07-.12.11-.16.12-.04.01-.07.04-.09.07l-.19.21s-.07.07-.09.1c-.03.03-.05.04-.06.04l-.04-.04s0-.01-.02-.01c-.04,0-.06.02-.07.07s-.03.08-.06.11c-.11.05-.18.1-.21.14h-.03s-.1.01-.1.01c-.05,0-.08.03-.1.11-.02.07-.07.11-.16.12-.09.01-.15.03-.18.07,0,0-.02.01-.05.02s-.08.04-.15.09l-.46.16s-.06.03-.07.03l-.15.02s-.04-.01-.07-.04-.04-.04-.04-.04l-.1.03c-.07.02-.14.03-.21.03-.04,0-.08-.01-.12-.04s-.08-.04-.1-.05c-.11,0-.18-.08-.23-.25h-.07s-.06-.12-.15-.38c-.02-.03-.06-.05-.1-.06-.05-.01-.07-.05-.07-.11,0-.16.03-.27.11-.33.07-.06.11-.1.12-.13l.08-.28s.03-.05.05-.11l.13-.23s.05-.09.1-.19ZM131.88,37.39l-.07.03s-.06.04-.13.1-.14.1-.21.14c-.07.03-.14.12-.21.27-.07.15-.11.23-.11.25s.01.03.03.03l.19-.08c.07-.03.13-.08.19-.13.06-.05.15-.11.26-.19l.04-.04s.04-.04.1-.08.1-.08.13-.11l.05-.02c.06-.1.12-.16.19-.18s.1-.04.1-.07c0-.04-.03-.07-.1-.07-.03,0-.07.02-.13.05h-.12s-.05.02-.12.07l-.09.02Z" fill="#f3f3f4"/><path d="M137.76,38.53l.09-.08c.05,0,.09-.03.1-.07s.05-.09.12-.12c.07-.03.13-.09.19-.18.06-.09.12-.13.18-.13.02,0,.05.02.08.05.03.04.04.07.04.09,0,.12-.04.24-.11.37l-.02.15-.04.07c-.05.03-.09.06-.11.09-.02.03-.06.07-.13.12l-.06.08c-.08.03-.13.07-.16.13-.03.06-.07.09-.11.1s-.1.04-.16.11c-.04.02-.08.03-.13.05v.05s-.1.07-.18.09-.14.04-.17.06c-.04.02-.07.03-.08.03-.07,0-.13-.01-.19-.04-.06-.03-.12-.04-.18-.05-.02-.02-.03-.05-.04-.07,0-.03-.02-.06-.05-.1-.03-.04-.05-.1-.05-.17l.02-.1s0-.03-.03-.05c-.02-.02-.03-.04-.03-.05s0-.03.01-.03c0,0,.01-.02.01-.03,0-.02,0-.04-.01-.06,0-.02-.01-.04-.01-.05l.03-.27s0-.03-.02-.03c-.02,0-.04.02-.08.05-.04.04-.08.05-.13.05-.03.02-.05.07-.07.14-.03.04-.07.07-.11.1l-.02.03s-.03.05-.08.06c-.05.02-.08.04-.1.06l-.05.05h-.1s-.03.03-.06.08c-.03.06-.07.1-.13.14l-.42.34s-.11.07-.19.11l-.03.03c-.29.19-.5.29-.62.29-.1,0-.21-.03-.34-.08s-.2-.12-.21-.2l-.05-.22c-.03-.05-.05-.12-.05-.21,0-.04,0-.07.01-.09v-.21s.02-.07.09-.07v-.15s.02-.07.08-.17c.06-.1.11-.16.13-.17l.05-.07s.02-.09.08-.14.1-.1.13-.15c.03-.05.1-.11.19-.17l.16-.16c.13-.13.27-.23.42-.31.02,0,.07-.04.13-.11s.14-.11.23-.15.17-.07.25-.12c.08-.05.15-.07.19-.07h.04s.11-.05.29-.14h.03s.05.01.1.04h.01l.09-.04s.03-.01.05-.01c.23,0,.35.16.37.47,0,.07.02.1.05.1.03,0,.09-.07.16-.2s.21-.2.43-.2c.16,0,.23.1.23.3,0,.24-.11.46-.32.67-.02.03-.03.06-.03.1l-.08.22h0s-.02.06-.05.1c-.03.04-.05.07-.05.1v.14s-.01.15-.01.15c0,.07.01.11.04.14.12-.03.2-.08.25-.15.05-.07.09-.1.11-.11l.05-.02c.03-.05.07-.1.11-.14ZM135.94,38.53c.01-.08.06-.14.13-.18.07-.04.12-.08.13-.13.07-.05.17-.14.3-.27.13-.13.19-.21.19-.24,0-.01,0-.02-.02-.02h-.01l-.04.03h-.1s-.1,0-.1,0l-.08-.04h-.07s-.11-.01-.11-.01c-.06,0-.11.01-.15.03-.04.02-.12.05-.24.08-.12.03-.22.08-.32.15-.09.07-.16.11-.21.11-.03.05-.11.13-.26.23-.09.03-.14.09-.17.19-.09.08-.14.12-.14.13l-.04.09s-.07.05-.11.06-.07.05-.08.11c0,.06-.03.11-.07.16s-.06.09-.06.12c0,.18.03.27.1.27.03,0,.09-.02.18-.06s.15-.06.16-.08c.02-.01.04-.03.09-.04l.1-.05s.03-.02.05-.03c.02,0,.04-.02.05-.04.02-.02.05-.04.1-.07.05-.02.08-.05.11-.1.06-.04.16-.09.3-.17l.11-.09c.08-.04.13-.07.15-.09.02-.03.05-.05.11-.08Z" fill="#f3f3f4"/><path d="M138.62,39.41l-.04-.28s.01-.06.03-.1c.02,0,.04,0,.05-.02l-.03-.1c0-.13.03-.24.11-.33.07-.09.11-.16.12-.19s.06-.14.16-.32.17-.3.22-.35l.03-.07h.04c.08-.15.2-.27.36-.38.05-.08.11-.15.19-.2.07-.05.12-.09.15-.11.03-.02.06-.04.12-.04h.02c.1-.12.2-.17.27-.17.03-.03.08-.05.15-.09h.06s.04,0,.07-.02c.02-.02.04-.02.07-.02.01,0,.05.01.11.04.06-.06.11-.09.14-.09.08,0,.16.03.23.09.08.06.13.13.15.21.02.08.04.13.05.15.01.01.03.03.04.05.03,0,.07-.07.11-.2l.07-.09c.1-.13.17-.28.2-.45,0,0,.02-.04.03-.09.02-.05.05-.14.12-.27.11-.15.18-.31.23-.47l.07-.1s.07-.06.07-.1c0-.03.02-.07.03-.1.02-.03.04-.06.06-.11s.04-.07.06-.09c.02-.01.04-.06.07-.15.03-.09.07-.13.11-.15s.09-.03.13-.06v-.04s-.01-.08-.01-.08c0-.04.05-.12.14-.23s.17-.2.21-.27.11-.18.21-.33c.1-.15.17-.24.22-.27l.13-.13c.06-.08.14-.13.24-.13.08,0,.16.04.25.13.09.09.13.17.13.25,0,.03-.02.1-.06.2v.07c-.01.06-.03.13-.07.21-.04.08-.06.14-.07.19l-.31.75s-.06.03-.07.03c-.1.21-.17.32-.23.34v.11s-.02.07-.08.09h-.02c-.03.15-.07.25-.12.31-.05.06-.09.13-.11.19s-.06.1-.11.11c-.05,0-.08.08-.08.21-.01.07-.05.11-.11.11-.05,0-.09.05-.1.14-.02.09-.09.15-.21.15-.04.02-.06.05-.07.08l.04.14s-.07.11-.2.26l-.04.14c-.07.03-.13.21-.17.56l-.07.38v.15s-.01.08-.01.08l.07.22v.13c-.01.06.01.09.05.09.02,0,.07-.03.15-.1l.08-.03c.23-.12.37-.23.42-.34.02-.02.04-.03.08-.04.04-.02.07-.03.08-.06.02-.03.03-.04.04-.05.22-.15.36-.27.43-.38s.13-.17.2-.2l.04-.04s.08-.05.11-.05c.06,0,.09.02.09.05l-.04.15c.04.1.05.15.05.17,0,.13-.06.21-.17.23-.05.05-.08.1-.11.16-.03.06-.09.1-.18.11-.06.09-.12.14-.17.17-.05.03-.08.06-.08.09v.05s-.05.07-.08.09l-.1-.02s-.05.1-.1.18c-.02-.01-.03-.02-.05-.02-.05,0-.09.03-.13.09s-.06.09-.07.09h-.13s-.05.03-.09.07-.11.05-.2.05l-.17.03c-.16,0-.31-.05-.44-.16-.14-.1-.21-.2-.22-.28,0-.09-.04-.19-.09-.31v-.22c-.05-.23-.1-.35-.15-.35v.07s-.05.02-.05.02c-.02.11-.06.17-.11.17-.02.01-.05.03-.07.05l-.03.02s-.04.04-.06.09c-.03.05-.1.13-.23.23-.05.13-.09.2-.12.2l-.07-.04h-.01s-.05.04-.07.13c-.02.09-.05.13-.11.13-.01,0-.03.02-.04.07-.01.05-.05.08-.1.09-.05.01-.1.06-.14.15-.04.09-.07.13-.08.13,0,0-.02,0-.03-.01l-.09.02s-.04.07-.08.13c-.03.01-.06.03-.09.04-.11.11-.26.16-.45.16-.13,0-.24-.03-.31-.09-.08-.06-.12-.1-.14-.14s-.04-.09-.08-.15-.07-.13-.08-.22ZM140.8,38.17l.04-.07c.06-.02.1-.08.12-.16.03-.02.1-.12.23-.28.12-.17.18-.26.18-.28-.04-.04-.08-.05-.12-.05,0,0-.03,0-.07.02-.04.01-.07.03-.11.03-.04,0-.08.02-.12.04l-.14-.02s-.13.05-.27.16l-.13-.02s-.06.05-.11.14l-.28.22h-.03c-.05,0-.09.04-.1.14-.06.08-.12.14-.17.17-.05.03-.09.08-.11.13v.07c-.1.11-.15.2-.15.26-.08.07-.13.15-.15.23s-.05.16-.09.21c.02.05.03.11.03.19,0,.08.04.11.11.11.11,0,.22-.06.35-.19,0,0,.04-.03.09-.06s.13-.1.23-.19c.1-.1.15-.15.16-.15.04-.04.06-.05.07-.05l.04-.04s.02-.03.05-.05c.03-.02.07-.06.12-.11.05-.06.09-.09.12-.1.03-.01.05-.03.06-.05.01-.02.03-.04.05-.06.03-.02.04-.04.04-.06v-.07s.08-.05.08-.05ZM142.7,35.96l-.05.16s.09-.06.13-.15c.11-.16.18-.25.22-.29.05,0,.08-.03.11-.09s.07-.12.13-.18c0-.03.03-.07.08-.15.05-.07.09-.12.11-.16s.05-.07.1-.12c.05-.05.1-.14.15-.26.04-.12.08-.2.12-.22.03-.03.05-.08.05-.15,0-.1,0-.16-.02-.16-.03,0-.06.02-.07.06-.02.04-.05.1-.11.16l-.19.31c-.07.12-.12.22-.14.3-.02.07-.05.12-.08.13-.03.01-.07.05-.11.11l-.08.08s-.03.1-.04.16l-.05.04v.1s-.03.09-.08.13-.08.06-.08.07l-.07.12Z" fill="#f3f3f4"/><path d="M144.94,39.62l.1.08c.05.03.08.09.08.19,0,.02,0,.05-.03.08-.02.03-.03.06-.05.09-.13.25-.28.38-.45.38-.05,0-.14-.05-.26-.15-.12-.1-.19-.19-.22-.27s-.06-.13-.08-.15-.03-.04-.03-.05c0-.04.02-.08.05-.13s.05-.11.07-.18c.02-.07.05-.12.12-.16.06-.03.11-.07.14-.1.03-.03.07-.05.11-.05.03,0,.06.01.09.04.03.03.07.05.12.08.05.03.11.09.16.18l.07.13Z" fill="#f3f3f4"/></svg>